<svg width="150" height="150" viewBox="0 0 150 150" fill="none" xmlns="http://www.w3.org/2000/svg">
<path d="M120.843 66.4804C122.436 66.4804 123.728 65.1889 123.728 63.5957C123.728 62.0025 122.436 60.711 120.843 60.711C119.25 60.711 117.958 62.0025 117.958 63.5957C117.958 65.1889 119.25 66.4804 120.843 66.4804Z" fill="#ECEFFB"/>
<path d="M75 127.04C103.319 127.04 126.276 118.034 126.276 106.925C126.276 95.8155 103.319 86.8096 75 86.8096C46.6809 86.8096 23.7236 95.8155 23.7236 106.925C23.7236 118.034 46.6809 127.04 75 127.04Z" fill="#ECEFFB"/>
<path d="M73.3542 34.4888L71.2236 47.8443H57.3792L73.3542 34.4888Z" fill="#3F61DB"/>
<path d="M71.2236 48.1568H57.3792C57.2472 48.1568 57.1305 48.0749 57.0847 47.9512C57.0403 47.8276 57.0778 47.6887 57.1778 47.6054L73.1528 34.2485C73.2528 34.1651 73.3944 34.1526 73.5069 34.2165C73.6208 34.2804 73.6819 34.4082 73.6611 34.5374L71.5305 47.8943C71.5083 48.0457 71.3778 48.1568 71.2236 48.1568ZM58.2403 47.5318H70.9569L72.9139 35.2637L58.2403 47.5318Z" fill="#ECEFFB"/>
<path d="M74.6305 59.5957C74.5347 59.5957 74.4389 59.5513 74.3778 59.4679L73.5347 58.3179C73.4403 58.1888 73.4583 58.0082 73.5778 57.8999C73.6972 57.7929 73.8792 57.7929 73.9972 57.9026C74.0028 57.9082 74.0097 57.9138 74.0153 57.9207C74.0208 57.9263 74.0264 57.9332 74.0305 57.9388C74.0444 57.9554 74.0597 57.9776 74.075 57.9985L74.8819 59.0985C74.9833 59.2374 74.9541 59.4332 74.8153 59.5346C74.7597 59.5763 74.6958 59.5957 74.6305 59.5957Z" fill="#ECEFFB"/>
<mask id="mask0_10545_38374" style="mask-type:luminance" maskUnits="userSpaceOnUse" x="73" y="57" width="2" height="3">
<path d="M74.6305 59.5957C74.5347 59.5957 74.4389 59.5513 74.3778 59.4679L73.5347 58.3179C73.4403 58.1888 73.4583 58.0082 73.5778 57.8999C73.6972 57.7929 73.8792 57.7929 73.9972 57.9026C74.0028 57.9082 74.0097 57.9138 74.0153 57.9207C74.0208 57.9263 74.0264 57.9332 74.0305 57.9388C74.0444 57.9554 74.0597 57.9776 74.075 57.9985L74.8819 59.0985C74.9833 59.2374 74.9541 59.4332 74.8153 59.5346C74.7597 59.5763 74.6958 59.5957 74.6305 59.5957Z" fill="white"/>
</mask>
<g mask="url(#mask0_10545_38374)">
<path d="M74.4542 58.9651L77.957 63.7401C77.7486 63.4554 77.5264 63.179 77.2903 62.9096C74.7 59.9582 70.9236 58.4818 66.9125 58.4818C65.1722 58.4818 63.3889 58.7596 61.6375 59.3151L58.1347 54.5401C59.8861 53.9846 61.6695 53.7068 63.4097 53.7068C67.4208 53.7068 71.1972 55.1832 73.7875 58.1346C74.0236 58.404 74.2458 58.6804 74.4542 58.9651Z" fill="#787070"/>
<path d="M77.9569 64.0526C77.8611 64.0526 77.7653 64.0082 77.7042 63.9248C77.5014 63.6471 77.2819 63.3748 77.0542 63.1151C74.6083 60.329 71.0069 58.7943 66.9111 58.7943C65.1847 58.7943 63.443 59.0693 61.7305 59.6123C61.6028 59.6526 61.4639 59.6068 61.3833 59.4998L57.8805 54.7248C57.8208 54.6443 57.8042 54.5387 57.8361 54.4429C57.8667 54.3471 57.9431 54.2721 58.0389 54.2415C59.8125 53.679 61.6181 53.3943 63.4083 53.3943C67.6861 53.3943 71.4555 55.004 74.0208 57.9276C74.2611 58.2012 74.4903 58.4887 74.7055 58.7804L78.2055 63.5526C78.2069 63.554 78.2069 63.5554 78.2083 63.5554C78.3097 63.6943 78.2805 63.8901 78.1417 63.9929C78.0861 64.0332 78.0222 64.0526 77.9569 64.0526ZM66.9125 58.1693C70.1194 58.1693 73.0403 59.0748 75.3833 60.7596L74.2028 59.1498C74 58.8721 73.7805 58.5998 73.5528 58.3401C71.1069 55.554 67.5055 54.0193 63.4097 54.0193C61.8236 54.0193 60.2236 54.2512 58.6472 54.711L61.7569 58.9512C63.4611 58.4318 65.1944 58.1693 66.9125 58.1693Z" fill="#ECEFFB"/>
</g>
<path d="M56.1042 81.0235C56.0181 81.0235 55.9333 80.9888 55.8708 80.9193L55.8222 80.8638C55.6611 80.679 55.5069 80.4874 55.3639 80.2929L51.8611 75.5179C51.7597 75.379 51.7889 75.1832 51.9278 75.0818C52.0667 74.9804 52.2625 75.0096 52.3653 75.1485L52.3681 75.1526C52.5 75.3318 52.6417 75.5082 52.7903 75.6776L52.8347 75.7276C52.8417 75.736 52.8486 75.7429 52.8542 75.7513L56.3569 80.5263C56.4556 80.661 56.4319 80.8485 56.3014 80.954C56.2431 81.0013 56.1722 81.0235 56.1042 81.0235Z" fill="#ECEFFB"/>
<mask id="mask1_10545_38374" style="mask-type:luminance" maskUnits="userSpaceOnUse" x="51" y="75" width="6" height="7">
<path d="M56.1042 81.0235C56.0181 81.0235 55.9333 80.9888 55.8708 80.9193L55.8222 80.8638C55.6611 80.679 55.5069 80.4874 55.3639 80.2929L51.8611 75.5179C51.7597 75.379 51.7889 75.1832 51.9278 75.0818C52.0667 74.9804 52.2625 75.0096 52.3653 75.1485L52.3681 75.1526C52.5 75.3318 52.6417 75.5082 52.7903 75.6776L52.8347 75.7276C52.8417 75.736 52.8486 75.7429 52.8542 75.7513L56.3569 80.5263C56.4556 80.661 56.4319 80.8485 56.3014 80.954C56.2431 81.0013 56.1722 81.0235 56.1042 81.0235Z" fill="white"/>
</mask>
<g mask="url(#mask1_10545_38374)">
<g opacity="0.6">
<path d="M52.8555 76.2082L56.3583 80.9832C56.2555 80.8777 56.1542 80.7694 56.0569 80.6582C55.9 80.4805 55.7528 80.2957 55.6153 80.1082L52.1125 75.3333C52.25 75.5208 52.3972 75.7055 52.5542 75.8832C52.6514 75.9944 52.7528 76.1027 52.8555 76.2082Z" fill="#16224D"/>
<path d="M56.3583 81.2957C56.2764 81.2957 56.1958 81.2638 56.1347 81.2013C56.0264 81.0915 55.9208 80.9776 55.8208 80.8638C55.6597 80.6804 55.5055 80.4888 55.3625 80.2929L51.8597 75.5179C51.7583 75.379 51.7875 75.1832 51.9264 75.0818C52.0653 74.9804 52.2611 75.0096 52.3639 75.1485L52.3667 75.1526C52.4986 75.3318 52.6403 75.5082 52.7889 75.6776C52.8819 75.7832 52.9792 75.8888 53.0792 75.9901C53.0903 76.0013 53.0986 76.0124 53.1083 76.0235L56.6111 80.7985C56.7083 80.9304 56.6861 81.1151 56.5611 81.2221C56.5028 81.2721 56.4305 81.2957 56.3583 81.2957Z" fill="#ECEFFB"/>
</g>
</g>
<path d="M56.3584 81.2957C56.2764 81.2957 56.1959 81.2637 56.1347 81.2012C56.0445 81.1096 55.9556 81.0151 55.8695 80.9179C55.8667 80.9137 55.8625 80.911 55.8597 80.9068C55.8236 80.8624 55.782 80.804 55.7431 80.7499L55.7 80.6901L52.3472 76.1193C52.2486 75.9846 52.2722 75.7971 52.4028 75.6915C52.532 75.586 52.7209 75.6012 52.832 75.7262C52.9125 75.8151 52.9945 75.9026 53.0778 75.9887C53.0875 75.9998 53.0972 76.011 53.107 76.0221L56.6097 80.7971C56.707 80.929 56.6847 81.1137 56.5597 81.2207C56.5014 81.2721 56.4306 81.2957 56.3584 81.2957Z" fill="#ECEFFB"/>
<mask id="mask2_10545_38374" style="mask-type:luminance" maskUnits="userSpaceOnUse" x="52" y="75" width="5" height="7">
<path d="M56.3584 81.2957C56.2764 81.2957 56.1959 81.2637 56.1347 81.2012C56.0445 81.1096 55.9556 81.0151 55.8695 80.9179C55.8667 80.9137 55.8625 80.911 55.8597 80.9068C55.8236 80.8624 55.782 80.804 55.7431 80.7499L55.7 80.6901L52.3472 76.1193C52.2486 75.9846 52.2722 75.7971 52.4028 75.6915C52.532 75.586 52.7209 75.6012 52.832 75.7262C52.9125 75.8151 52.9945 75.9026 53.0778 75.9887C53.0875 75.9998 53.0972 76.011 53.107 76.0221L56.6097 80.7971C56.707 80.929 56.6847 81.1137 56.5597 81.2207C56.5014 81.2721 56.4306 81.2957 56.3584 81.2957Z" fill="white"/>
</mask>
<g mask="url(#mask2_10545_38374)">
<g opacity="0.6">
<path d="M52.8555 76.2082L56.3583 80.9832C56.2555 80.8777 56.1542 80.7694 56.0569 80.6582C55.9 80.4805 55.7528 80.2957 55.6153 80.1082L52.1125 75.3333C52.25 75.5208 52.3972 75.7055 52.5542 75.8832C52.6514 75.9944 52.7528 76.1027 52.8555 76.2082Z" fill="#16224D"/>
<path d="M56.3583 81.2957C56.2764 81.2957 56.1958 81.2638 56.1347 81.2013C56.0264 81.0915 55.9208 80.9776 55.8208 80.8638C55.6597 80.6804 55.5055 80.4888 55.3625 80.2929L51.8597 75.5179C51.7583 75.379 51.7875 75.1832 51.9264 75.0818C52.0653 74.9804 52.2611 75.0096 52.3639 75.1485L52.3667 75.1526C52.4986 75.3318 52.6403 75.5082 52.7889 75.6776C52.8819 75.7832 52.9792 75.8888 53.0792 75.9901C53.0903 76.0013 53.0986 76.0124 53.1083 76.0235L56.6111 80.7985C56.7083 80.9304 56.6861 81.1151 56.5611 81.2221C56.5028 81.2721 56.4305 81.2957 56.3583 81.2957Z" fill="#ECEFFB"/>
</g>
</g>
<path d="M71.0306 70.3415C70.9472 70.6054 70.8514 70.8707 70.7459 71.1318C70.5195 71.6929 70.2445 72.2443 69.9209 72.779C69.7653 73.036 69.6 73.2901 69.4208 73.5401C68.8153 74.3943 68.0792 75.1971 67.2181 75.9152C64.875 77.8749 62.0584 78.8526 59.3972 78.8526C56.7375 78.8526 54.2333 77.8735 52.5167 75.9152C49.0792 71.9985 50.0917 65.6513 54.7764 61.7374C57.1195 59.7776 59.9361 58.7999 62.5972 58.7999C65.257 58.7999 67.7611 59.779 69.4778 61.7374C69.5278 61.7943 69.575 61.8499 69.6195 61.9068C69.8431 62.1763 70.0486 62.4582 70.232 62.7457C70.5639 63.2679 70.8264 63.8165 71.0292 64.3915C71.1334 64.6832 71.2195 64.9818 71.2875 65.2846C71.6639 66.904 71.5681 68.6485 71.0306 70.3415Z" fill="#E2E7FA"/>
<path d="M71.2889 65.2846H62.1278C61.1611 65.2846 60.4958 64.5304 60.6458 63.5971C60.7944 62.6638 61.6986 61.9096 62.6666 61.9096H69.6222C69.8458 62.1791 70.0514 62.461 70.2347 62.7485C70.5667 63.2707 70.8291 63.8193 71.0319 64.3943C71.1347 64.6832 71.2208 64.9818 71.2889 65.2846Z" fill="#3957C5"/>
<path d="M71.0305 70.3415C70.9472 70.6054 70.8514 70.8707 70.7458 71.1318C70.5194 71.6929 70.2444 72.2443 69.9208 72.779C69.7653 73.036 69.6 73.2901 69.4208 73.5401H60.7153C59.7972 73.5401 59.1722 72.8235 59.3125 71.9401C59.4541 71.0568 60.3097 70.3401 61.225 70.3401H71.0305V70.3415Z" fill="#3957C5"/>
<path d="M73.632 34.2568H112.278L111.688 37.9596L101.532 101.635H52.6403H48.8014L51.8722 82.3763C53.8944 83.4235 56.2028 83.9471 58.5931 83.9471C61.8056 83.9471 65.1681 83.0013 68.1944 81.1082H95.2917C95.7625 81.1082 96.2 80.7416 96.2736 80.2874C96.3458 79.836 96.0236 79.4693 95.5542 79.4693H70.4403C72.7347 77.536 74.4361 75.2138 75.5083 72.761H96.6236C97.0945 72.761 97.532 72.3943 97.6042 71.943C97.6764 71.4902 97.3542 71.1221 96.8847 71.1221H76.1278C76.8403 68.8874 77.0375 66.5916 76.6986 64.4138H97.9542C98.425 64.4138 98.8625 64.0471 98.9347 63.5957C99.007 63.143 98.6847 62.7749 98.2153 62.7749H76.3333C75.8389 61.0902 74.9958 59.5124 73.7889 58.1332C71.1986 55.1818 67.4222 53.7054 63.4111 53.7054C61.0222 53.7054 58.5514 54.2291 56.1958 55.2749L57.3806 47.843H71.225L73.3556 34.4888L73.632 34.2568ZM93.9611 89.4541C94.432 89.4541 94.8695 89.0874 94.9431 88.6332C95.0153 88.1818 94.6931 87.8152 94.2236 87.8152H61.2583C60.7903 87.8152 60.3514 88.1818 60.2792 88.6332C60.2069 89.086 60.5292 89.4541 60.9972 89.4541H93.9611ZM99.2861 56.068C99.7569 56.068 100.194 55.7013 100.267 55.2499C100.339 54.7971 100.017 54.4291 99.5472 54.4291H77.2014C76.7319 54.4291 76.2944 54.7957 76.2222 55.2499C76.15 55.7013 76.4694 56.068 76.9403 56.068H99.2861Z" fill="#ECEFFB"/>
<path d="M101.532 101.946H48.8014C48.7097 101.946 48.6236 101.905 48.5639 101.836C48.5042 101.767 48.4792 101.675 48.4931 101.585L51.5653 82.3263C51.5806 82.2277 51.6431 82.1416 51.7333 82.0971C51.8222 82.0513 51.9292 82.0527 52.0181 82.0985C53.9597 83.1041 56.2333 83.6346 58.5945 83.6346C61.8486 83.6346 65.1111 82.6694 68.0292 80.843C68.0792 80.8124 68.1361 80.7957 68.1945 80.7957H95.2917C95.6083 80.7957 95.9167 80.5402 95.9639 80.2388C95.9833 80.1166 95.9556 80.0027 95.8847 79.9194C95.8097 79.8305 95.6917 79.7819 95.5528 79.7819H70.4403C70.3083 79.7819 70.1917 79.6999 70.1472 79.5763C70.1028 79.4527 70.1389 79.3152 70.2389 79.2305C72.4139 77.3971 74.1375 75.1166 75.2222 72.636C75.2722 72.5221 75.3847 72.4485 75.5083 72.4485H96.6236C96.9403 72.4485 97.2486 72.1944 97.2958 71.893C97.3153 71.7694 97.2875 71.6555 97.2167 71.5721C97.1417 71.4832 97.0236 71.4346 96.8847 71.4346H76.1278C76.0278 71.4346 75.9347 71.3874 75.875 71.3069C75.8167 71.2263 75.8 71.1221 75.8292 71.0277C76.525 68.8457 76.7181 66.5749 76.3889 64.4624C76.375 64.3721 76.4014 64.2805 76.4597 64.211C76.5181 64.1416 76.6056 64.1013 76.6972 64.1013H97.9528C98.2694 64.1013 98.5778 63.8471 98.625 63.5457C98.6444 63.4221 98.6167 63.3082 98.5458 63.2249C98.4708 63.136 98.3528 63.0874 98.2139 63.0874H76.3333C76.1944 63.0874 76.0722 62.9957 76.0333 62.8624C75.5389 61.1749 74.7042 59.6527 73.5528 58.3388C71.107 55.5527 67.5056 54.018 63.4097 54.018C61.0431 54.018 58.5917 54.5513 56.3208 55.561C56.2153 55.6069 56.0945 55.593 56.0028 55.5235C55.9111 55.4541 55.8667 55.3402 55.8847 55.2263L57.0695 47.7944C57.0931 47.643 57.225 47.5305 57.3778 47.5305H70.9556L73.0431 34.4388C73.0542 34.3652 73.0931 34.2971 73.15 34.2485L73.4278 34.0138C73.4847 33.9666 73.5556 33.9402 73.6292 33.9402H112.278C112.369 33.9402 112.456 33.9805 112.515 34.0499C112.575 34.1194 112.6 34.211 112.586 34.3013L101.84 101.679C101.817 101.835 101.686 101.946 101.532 101.946ZM49.1667 101.321H101.265L111.911 34.568H73.7458L73.6445 34.6541L71.5333 47.8944C71.5097 48.0457 71.3778 48.1582 71.225 48.1582H57.6472L56.5931 54.768C58.7945 53.868 61.1389 53.3944 63.4111 53.3944C67.6889 53.3944 71.4583 55.0041 74.0236 57.9277C75.1833 59.2527 76.0375 60.7763 76.5653 62.4624H98.2167C98.5361 62.4624 98.8306 62.593 99.0236 62.8194C99.2153 63.0444 99.2944 63.3374 99.2444 63.6444C99.1472 64.2513 98.5806 64.7263 97.9542 64.7263H77.0583C77.3111 66.6971 77.1361 68.7846 76.5486 70.8096H96.8847C97.2042 70.8096 97.4986 70.9402 97.6917 71.1666C97.8833 71.3916 97.9625 71.6846 97.9125 71.9916C97.8153 72.5985 97.2486 73.0735 96.6222 73.0735H75.7111C74.6931 75.3263 73.1681 77.411 71.2681 79.1569H95.5528C95.8722 79.1569 96.1667 79.2874 96.3597 79.5138C96.5514 79.7388 96.6292 80.0305 96.5806 80.3374C96.4833 80.9444 95.9167 81.4207 95.2903 81.4207H68.2833C65.2847 83.2791 61.9361 84.2596 58.5931 84.2596C56.2861 84.2596 54.057 83.7721 52.1139 82.8444L49.1667 101.321ZM93.9611 89.7666H60.9972C60.6792 89.7666 60.3847 89.6374 60.1917 89.4096C60 89.1846 59.9208 88.8916 59.9708 88.5832C60.0681 87.9763 60.6333 87.5013 61.2583 87.5013H94.2222C94.5417 87.5013 94.8361 87.6319 95.0292 87.8582C95.2208 88.0832 95.2986 88.3749 95.25 88.6819C95.1542 89.2902 94.5875 89.7666 93.9611 89.7666ZM61.2583 88.1277C60.9431 88.1277 60.6361 88.3819 60.5875 88.6832C60.5681 88.8069 60.5958 88.9221 60.6667 89.0055C60.7417 89.0944 60.8597 89.143 60.9958 89.143H93.9597C94.2764 89.143 94.5847 88.8874 94.6319 88.586C94.6514 88.4638 94.6236 88.3499 94.5528 88.2666C94.4778 88.1777 94.3597 88.1291 94.2208 88.1291H61.2583V88.1277ZM99.2861 56.3805H76.9403C76.6208 56.3805 76.3278 56.2513 76.1347 56.0249C75.9431 55.7999 75.8653 55.5082 75.9139 55.2013C76.0111 54.593 76.5764 54.118 77.2014 54.118H99.5472C99.8667 54.118 100.161 54.2485 100.354 54.4749C100.546 54.6999 100.625 54.993 100.575 55.2999C100.479 55.9055 99.9125 56.3805 99.2861 56.3805ZM77.2014 54.7416C76.8861 54.7416 76.5792 54.9971 76.5306 55.2985C76.5111 55.4221 76.5389 55.536 76.6097 55.618C76.6847 55.7055 76.8014 55.7541 76.9403 55.7541H99.2861C99.6028 55.7541 99.9111 55.4999 99.9583 55.1985C99.9778 55.0749 99.95 54.961 99.8792 54.8777C99.8042 54.7888 99.6861 54.7402 99.5472 54.7402H77.2014V54.7416Z" fill="#ECEFFB"/>
<g opacity="0.5">
<g opacity="0.6">
<path d="M55.2097 61.4471L54.8778 63.5319C54.8264 63.5708 54.775 63.6096 54.725 63.6527C53.5958 64.5944 53.3528 66.1249 54.1805 67.068C54.2166 67.1096 54.2555 67.1499 54.2958 67.1874L52.8569 76.2069C52.7541 76.1013 52.6528 75.993 52.5555 75.8819C50.8472 73.9332 50.2444 71.3791 50.6528 68.8263C51.0597 66.2721 52.4764 63.7194 54.8069 61.7721C54.9375 61.661 55.0736 61.5527 55.2097 61.4471Z" fill="#3F61DB"/>
</g>
</g>
<path d="M96.8847 71.1221C97.3556 71.1221 97.6764 71.4888 97.6042 71.943C97.5319 72.3943 97.0931 72.761 96.6236 72.761H75.5083C75.7458 72.2207 75.9528 71.6735 76.1264 71.1221H96.8847Z" fill="#3957C5"/>
<path d="M96.6236 73.0735H75.5083C75.4028 73.0735 75.3042 73.0207 75.2472 72.9318C75.1903 72.8429 75.1805 72.7318 75.2222 72.636C75.4569 72.0999 75.6611 71.5596 75.8292 71.029C75.8694 70.8985 75.9903 70.811 76.1278 70.811H96.8847C97.2042 70.811 97.4986 70.9415 97.6917 71.1679C97.8833 71.3929 97.9625 71.686 97.9125 71.9929C97.8167 72.5985 97.25 73.0735 96.6236 73.0735ZM75.9806 72.4485H96.6236C96.9403 72.4485 97.2486 72.1943 97.2958 71.8929C97.3153 71.7693 97.2875 71.6554 97.2167 71.5721C97.1417 71.4832 97.0236 71.4346 96.8847 71.4346H76.3542C76.2431 71.7707 76.1181 72.1096 75.9806 72.4485Z" fill="#3957C5"/>
<path d="M95.5542 79.468C96.025 79.468 96.3459 79.8346 96.2736 80.286C96.2014 80.7388 95.7625 81.1068 95.2917 81.1068H68.1931C68.9445 80.6374 69.675 80.1082 70.3764 79.5221C70.3973 79.5041 70.4195 79.486 70.4403 79.4693H95.5542V79.468Z" fill="#3957C5"/>
<path d="M95.2917 81.4193H68.1931C68.0542 81.4193 67.9306 81.3276 67.8931 81.1929C67.8542 81.0596 67.9097 80.9151 68.0278 80.8415C68.7736 80.3749 69.4959 79.8499 70.1764 79.2818L70.2347 79.2332C70.2917 79.186 70.3667 79.1568 70.4403 79.1568H95.5542C95.8736 79.1568 96.1681 79.2874 96.3611 79.5137C96.5528 79.7387 96.6306 80.0304 96.582 80.3374C96.4847 80.9429 95.9195 81.4193 95.2917 81.4193ZM69.2292 80.7943H95.2917C95.6083 80.7943 95.9167 80.5387 95.9639 80.2374C95.9834 80.1151 95.9556 80.0012 95.8847 79.9179C95.8097 79.829 95.6917 79.7804 95.5528 79.7804H70.5528C70.1278 80.136 69.6847 80.4749 69.2292 80.7943Z" fill="#3957C5"/>
<path d="M115.432 38.5568L114.938 41.6623L114.842 42.2609L104.782 105.335H51.5167L48.8014 101.633H101.532L111.688 37.9609L112.279 34.2568L115.432 38.5568Z" fill="#E2E7FA"/>
<path d="M104.782 105.647H51.518C51.418 105.647 51.325 105.6 51.2667 105.519L48.55 101.818C48.4805 101.724 48.4694 101.597 48.5236 101.492C48.5764 101.386 48.6847 101.321 48.8028 101.321H101.267L111.381 37.911L111.972 34.2068C111.992 34.0818 112.085 33.9818 112.207 33.9527C112.329 33.9235 112.458 33.9693 112.532 34.0721L115.685 38.3721C115.735 38.4388 115.754 38.5235 115.742 38.6055L115.151 42.3096L105.09 105.385C105.065 105.536 104.935 105.647 104.782 105.647ZM51.675 105.022H104.514L114.533 42.211L115.103 38.636L112.469 35.0443L111.996 38.0096L101.84 101.682C101.817 101.833 101.685 101.946 101.532 101.946H49.418L51.675 105.022Z" fill="#ECEFFB"/>
<path d="M108.031 109.039L111.533 113.814H58.8L55.2972 109.039H108.031Z" fill="#3F61DB"/>
<path d="M111.533 114.126H58.8C58.7 114.126 58.607 114.079 58.5486 113.999L55.0458 109.224C54.9764 109.129 54.9653 109.003 55.0195 108.897C55.0722 108.792 55.1806 108.726 55.2986 108.726H108.032C108.132 108.726 108.225 108.774 108.283 108.854L111.786 113.629C111.856 113.724 111.867 113.85 111.813 113.955C111.758 114.06 111.651 114.126 111.533 114.126ZM58.9583 113.501H110.917L107.872 109.351H55.9139L58.9583 113.501Z" fill="#ECEFFB"/>
<path d="M118.776 41.6624L108.031 109.039H55.2972L55.8875 105.335H104.782L114.936 41.6624H118.776Z" fill="#ECEFFB"/>
<path d="M108.031 109.351H55.2972C55.2055 109.351 55.1194 109.311 55.0597 109.242C55 109.172 54.975 109.08 54.9889 108.99L55.5792 105.287C55.6028 105.136 55.7347 105.024 55.8875 105.024H104.515L114.628 41.6138C114.651 41.4624 114.783 41.3499 114.936 41.3499H118.776C118.868 41.3499 118.954 41.3902 119.014 41.4596C119.074 41.5291 119.099 41.6207 119.085 41.711L108.339 109.087C108.315 109.239 108.185 109.351 108.031 109.351ZM55.6639 108.726H107.764L118.41 41.9749H115.203L105.09 105.385C105.067 105.536 104.935 105.649 104.782 105.649H56.1542L55.6639 108.726Z" fill="#ECEFFB"/>
<path d="M118.776 41.6624L122.279 46.4374L111.533 113.814L108.031 109.039L118.776 41.6624Z" fill="#E2E7FA"/>
<path d="M111.533 114.126C111.435 114.126 111.342 114.08 111.282 113.998L107.779 109.223C107.729 109.157 107.71 109.072 107.722 108.989L118.468 41.6124C118.487 41.4874 118.581 41.3874 118.703 41.3582C118.825 41.329 118.954 41.3749 119.028 41.4776L122.531 46.2526C122.581 46.3193 122.6 46.404 122.588 46.4874L111.842 113.864C111.822 113.989 111.729 114.089 111.607 114.118C111.582 114.123 111.557 114.126 111.533 114.126ZM108.36 108.958L111.342 113.025L121.949 46.5165L118.967 42.4499L108.36 108.958Z" fill="#ECEFFB"/>
<path d="M49.9875 81.1805L31.7903 96.393C31.7472 96.4291 31.7028 96.461 31.6583 96.4944C31.6375 96.5096 31.618 96.5249 31.5972 96.5402C31.5611 96.5652 31.5236 96.5874 31.4875 96.611C31.4611 96.6277 31.4347 96.6458 31.4083 96.661C31.3889 96.6721 31.368 96.6819 31.3486 96.693C31.3 96.7194 31.25 96.7458 31.2 96.768C31.1819 96.7763 31.1639 96.7833 31.1458 96.7902C31.0792 96.8194 31.0125 96.8444 30.9458 96.8666C30.9153 96.8777 30.8833 96.8874 30.8514 96.8971C30.8264 96.9041 30.8 96.9124 30.775 96.918C30.7347 96.9277 30.6944 96.9374 30.6542 96.9458C30.6292 96.9513 30.6042 96.9555 30.5805 96.9596C30.5361 96.9666 30.493 96.9721 30.4486 96.9777C30.4278 96.9805 30.4069 96.9833 30.3861 96.9846C30.3222 96.9902 30.2569 96.993 30.193 96.993C29.6486 96.993 29.1375 96.793 28.7861 96.393L28.1375 95.6541C28.1055 95.618 28.0764 95.5805 28.0472 95.5416L31.55 100.317C31.5778 100.355 31.6083 100.393 31.6403 100.429L32.2889 101.168C32.6403 101.568 33.1514 101.768 33.6958 101.768C33.7597 101.768 33.8236 101.765 33.8889 101.76C33.9097 101.758 33.9305 101.754 33.9514 101.753C33.9958 101.747 34.0389 101.742 34.0833 101.735C34.1083 101.73 34.1333 101.725 34.1569 101.721C34.1972 101.712 34.2375 101.704 34.2778 101.693C34.3042 101.686 34.3292 101.679 34.3542 101.672C34.3722 101.667 34.3917 101.662 34.4097 101.657C34.4222 101.653 34.4347 101.647 34.4486 101.642C34.5167 101.619 34.5833 101.593 34.6486 101.565C34.6611 101.56 34.675 101.555 34.6889 101.55C34.6944 101.547 34.6986 101.544 34.7042 101.543C34.7542 101.519 34.8028 101.494 34.8528 101.468C34.8708 101.458 34.8889 101.451 34.9069 101.44C34.9097 101.439 34.9111 101.437 34.9125 101.436C34.9389 101.421 34.9653 101.403 34.9917 101.386C35.025 101.365 35.0597 101.346 35.093 101.322C35.0958 101.321 35.0986 101.318 35.1014 101.315C35.1222 101.301 35.1417 101.285 35.1625 101.269C35.1958 101.244 35.2305 101.221 35.2625 101.194C35.2736 101.186 35.2833 101.178 35.2944 101.168L53.4917 85.9555L49.9875 81.1805Z" fill="#324EAF"/>
<path d="M33.6945 102.08C33.0361 102.08 32.4528 101.829 32.0528 101.373L31.4042 100.635C31.3667 100.592 31.3306 100.547 31.2972 100.501L27.7959 95.7291C27.7959 95.7277 27.7945 95.7277 27.7945 95.7263C27.6931 95.5874 27.7222 95.3916 27.8611 95.2902C28 95.1888 28.1959 95.2179 28.2972 95.3568L28.2986 95.3596C28.3209 95.3902 28.3445 95.4193 28.3695 95.4485L29.0181 96.1874C29.2972 96.5054 29.7139 96.6804 30.1903 96.6804C30.2459 96.6804 30.3 96.6777 30.3556 96.6721L30.4111 96.6652C30.4486 96.661 30.4861 96.6568 30.525 96.6499C30.5403 96.6471 30.557 96.6443 30.5722 96.6402L30.5903 96.636C30.625 96.6291 30.6611 96.6207 30.6959 96.6124C30.7181 96.6068 30.7417 96.5999 30.7639 96.5943C30.7917 96.586 30.8181 96.5777 30.8459 96.5679C30.9042 96.5485 30.9625 96.5263 31.0209 96.5013L31.0681 96.4818C31.1125 96.461 31.1556 96.4388 31.1986 96.4152L31.2514 96.3874C31.2625 96.3804 31.275 96.3735 31.2861 96.3652L31.3445 96.3277C31.3695 96.3124 31.3931 96.2971 31.4181 96.2804C31.4264 96.2749 31.4347 96.2679 31.4431 96.261L31.4834 96.2304C31.5181 96.2041 31.5542 96.1791 31.5875 96.1499L49.7847 80.9374C49.8514 80.8818 49.9375 80.8568 50.0222 80.8666C50.1084 80.8763 50.1847 80.9221 50.2361 80.9916L53.7389 85.7666C53.8361 85.8999 53.8139 86.086 53.6875 86.1916L35.457 101.437C35.4278 101.461 35.3986 101.483 35.3681 101.504L35.3278 101.533C35.3111 101.546 35.2945 101.558 35.2778 101.571C35.2403 101.597 35.2111 101.615 35.182 101.633L35.1306 101.665C35.1111 101.678 35.0917 101.69 35.0722 101.701C35.0667 101.705 35.0611 101.708 35.0556 101.711C35.0431 101.718 35.0264 101.726 35.0111 101.733L34.9986 101.739C34.9431 101.768 34.8889 101.797 34.832 101.823C34.8334 101.823 34.8236 101.828 34.8153 101.832C34.8014 101.837 34.7861 101.844 34.7709 101.85C34.6959 101.882 34.6209 101.911 34.5459 101.936C34.5334 101.942 34.5167 101.947 34.5014 101.953C34.4875 101.957 34.4709 101.961 34.4556 101.965L34.4403 101.969C34.4111 101.978 34.382 101.986 34.3528 101.993C34.307 102.004 34.2625 102.015 34.2167 102.023L34.2014 102.026C34.1778 102.03 34.1556 102.036 34.132 102.04C34.082 102.048 34.032 102.055 33.9834 102.061L33.9653 102.064C33.9472 102.067 33.9306 102.068 33.9125 102.069C33.8347 102.078 33.7639 102.08 33.6945 102.08ZM29.6917 97.2554L31.8028 100.133C31.825 100.164 31.85 100.194 31.875 100.223L32.5236 100.962C32.8347 101.318 33.3236 101.494 33.8611 101.448L33.9153 101.442C33.9528 101.437 33.9917 101.433 34.0292 101.426C34.0445 101.424 34.0611 101.421 34.0764 101.417L34.0931 101.414C34.1292 101.407 34.1639 101.398 34.1986 101.39C34.2209 101.385 34.2431 101.378 34.2667 101.372L34.3139 101.36C34.3222 101.355 34.3361 101.35 34.3486 101.346C34.407 101.326 34.4667 101.304 34.525 101.278C34.5361 101.272 34.5486 101.268 34.5611 101.264L34.5709 101.26C34.6167 101.239 34.6597 101.215 34.7042 101.192C34.7153 101.185 34.7278 101.179 34.7389 101.173L34.7486 101.168C34.7514 101.165 34.7556 101.164 34.7584 101.162C34.7681 101.157 34.7806 101.148 34.7931 101.142L34.8584 101.101C34.8778 101.09 34.8972 101.078 34.9153 101.065C34.932 101.053 34.9403 101.047 34.9486 101.04L35.0014 101C35.0222 100.985 35.0431 100.969 35.0639 100.953L35.0917 100.93L53.0653 85.9054L49.9334 81.6346L31.9903 96.6332C31.9459 96.6693 31.9014 96.7041 31.8556 96.7374L31.825 96.761C31.8084 96.7735 31.7931 96.786 31.7764 96.7971C31.7431 96.8193 31.7097 96.8402 31.6764 96.861L31.6278 96.8916C31.607 96.9054 31.5861 96.9179 31.5653 96.9304C31.5486 96.9402 31.532 96.9485 31.5153 96.9568L31.4972 96.9666C31.4431 96.9957 31.3875 97.0249 31.332 97.0513C31.3167 97.0582 31.3014 97.0652 31.2847 97.0707L31.2695 97.0777C31.1959 97.1096 31.1209 97.1388 31.0445 97.1638C31.0097 97.1763 30.9736 97.1874 30.9389 97.1971C30.9097 97.2054 30.8806 97.2138 30.8514 97.2207C30.807 97.2318 30.7611 97.2429 30.7153 97.2513L30.7 97.2541C30.6778 97.2582 30.6542 97.2638 30.632 97.2666C30.582 97.2749 30.5334 97.2818 30.4834 97.2874L30.4639 97.2902C30.4472 97.2929 30.4292 97.2943 30.4111 97.2957C30.3334 97.3027 30.2611 97.3054 30.1917 97.3054C30.0195 97.3054 29.8514 97.2888 29.6917 97.2554Z" fill="#ECEFFB"/>
<path d="M76.6986 64.4137C76.6125 63.8596 76.4903 63.311 76.332 62.7748C75.8389 61.0887 74.9945 59.5123 73.7875 58.1332C71.1972 55.1818 67.4208 53.7068 63.4097 53.7068C61.0195 53.7068 58.5486 54.229 56.1945 55.2776C54.5917 55.9901 53.0445 56.9429 51.6139 58.1387C45.2958 63.4193 43.4111 71.6415 46.7986 77.5443L28.5986 92.7596C27.6431 93.5568 27.4375 94.8526 28.1375 95.654L28.7861 96.3929C29.1361 96.7929 29.65 96.9943 30.1917 96.9943C30.7361 96.9943 31.3125 96.7929 31.7889 96.3929L49.9875 81.1818C50.582 81.6332 51.2125 82.0332 51.8722 82.3748C53.8945 83.4207 56.2028 83.9457 58.5931 83.9457C61.807 83.9457 65.1695 83.0012 68.1931 81.1068C68.9458 80.6373 69.675 80.1082 70.4417 79.4679C72.7347 77.5332 74.4375 75.2123 75.5097 72.7582C75.7445 72.2207 75.9528 71.6707 76.1264 71.1193C76.8389 68.8887 77.0375 66.5901 76.6986 64.4137ZM67.2181 75.9165C64.875 77.8762 62.0583 78.854 59.3972 78.854C56.7375 78.854 54.2333 77.8748 52.5167 75.9165C49.0792 71.9998 50.0917 65.6526 54.7764 61.7387C57.1195 59.779 59.9361 58.8012 62.5972 58.8012C65.257 58.8012 67.7611 59.7804 69.4778 61.7387C69.5278 61.7957 69.575 61.8512 69.6195 61.9082C69.8431 62.1776 70.0486 62.4596 70.232 62.7471C70.5639 63.2693 70.8264 63.8179 71.0292 64.3929C71.1333 64.6846 71.2195 64.9832 71.2875 65.286C71.6625 66.9068 71.5681 68.6512 71.0292 70.3429C70.9458 70.6068 70.85 70.8721 70.7445 71.1332C70.5181 71.6943 70.2431 72.2457 69.9195 72.7804C69.7639 73.0373 69.5986 73.2915 69.4195 73.5415C68.8167 74.3957 68.0792 75.1985 67.2181 75.9165Z" fill="#3957C5"/>
<path d="M30.1917 97.3068C29.5333 97.3068 28.95 97.0554 28.5514 96.5985L27.9028 95.8596C27.5444 95.4485 27.3722 94.9082 27.4167 94.3387C27.4708 93.6582 27.8278 92.9943 28.3986 92.5193L46.4 77.4707C44.8153 74.5679 44.4111 71.0512 45.2639 67.5346C46.1458 63.8998 48.3306 60.4776 51.4153 57.8985C52.8375 56.7096 54.4042 55.7318 56.0694 54.9915C58.4167 53.9471 60.9556 53.3943 63.4125 53.3943C67.6903 53.3943 71.4597 55.004 74.025 57.9276C75.2389 59.3137 76.1167 60.9151 76.6347 62.6873C76.7944 63.2304 76.9208 63.7943 77.0097 64.3651C77.3542 66.5721 77.1514 68.9415 76.4264 71.2151C76.2528 71.7665 76.0417 72.3276 75.7986 72.8832C74.6764 75.4512 72.8931 77.8096 70.6444 79.7068C69.8833 80.3429 69.1361 80.8873 68.3597 81.3707C65.3458 83.2582 61.9694 84.2568 58.5944 84.2568C56.1347 84.2568 53.7611 83.7012 51.7306 82.6512C51.1333 82.3429 50.5528 81.9818 50 81.579L31.9889 96.6332C31.4708 97.0665 30.8333 97.3068 30.1917 97.3068ZM63.4111 54.0193C61.0417 54.0193 58.5903 54.5526 56.3222 55.5623C54.7097 56.279 53.1931 57.2262 51.8153 58.3776C45.6847 63.5012 43.6889 71.4971 47.0708 77.3873C47.1458 77.5193 47.1167 77.686 47 77.7832L28.7986 92.9985C28.3569 93.3679 28.0792 93.8735 28.0389 94.3873C28.0069 94.7887 28.125 95.1651 28.3722 95.4471L29.0208 96.186C29.3 96.5054 29.7153 96.6804 30.1917 96.6804C30.6861 96.6804 31.1833 96.4929 31.5889 96.1526L49.7875 80.9415C49.9 80.8485 50.0611 80.8443 50.1778 80.9332C50.7597 81.3762 51.3778 81.7679 52.0167 82.0971C53.9583 83.1012 56.2333 83.6332 58.5944 83.6332C61.8514 83.6332 65.1139 82.6679 68.0278 80.8429C68.7792 80.3735 69.5042 79.8457 70.2417 79.229C72.4167 77.3957 74.1389 75.1151 75.2236 72.6346C75.4583 72.0985 75.6611 71.5582 75.8292 71.0276C76.525 68.8443 76.7194 66.5748 76.3903 64.4623C76.3056 63.9193 76.1861 63.3818 76.0333 62.8651C75.5417 61.1804 74.7069 59.6582 73.5528 58.3401C71.1083 55.554 67.5056 54.0193 63.4111 54.0193ZM59.3972 79.1665C56.5292 79.1665 54.0014 78.086 52.2806 76.1221C50.7444 74.3721 50.0042 72.0554 50.1944 69.5971C50.4278 66.5818 52.025 63.629 54.575 61.4985C56.8972 59.5568 59.7458 58.4873 62.5972 58.4873C65.4653 58.4873 67.9931 59.5679 69.7139 61.5318C69.7667 61.5915 69.8167 61.6512 69.8653 61.7123C70.0903 61.9832 70.3042 62.2762 70.4972 62.5776C70.8319 63.1026 71.1111 63.6776 71.3264 64.286C71.4333 64.586 71.5236 64.8985 71.5944 65.2151C71.9792 66.8748 71.8875 68.6804 71.3292 70.436C71.2417 70.711 71.1431 70.9846 71.0361 71.2498C70.8042 71.8262 70.5194 72.3943 70.1889 72.9415C70.0208 73.2179 69.8542 73.4735 69.6764 73.7235C69.0431 74.6165 68.2833 75.4346 67.4194 76.1568C65.0972 78.0971 62.2486 79.1665 59.3972 79.1665ZM62.5972 59.1123C59.8931 59.1123 57.1861 60.1304 54.9764 61.9776C52.5542 64.0012 51.0375 66.7971 50.8181 69.6457C50.6403 71.9346 51.3278 74.0873 52.7514 75.7096C54.3514 77.536 56.7125 78.5415 59.3972 78.5415C62.1014 78.5415 64.8083 77.5235 67.0181 75.6762C67.8417 74.9887 68.5639 74.2096 69.1667 73.361C69.3347 73.1235 69.4944 72.8818 69.6542 72.6179C69.9667 72.0998 70.2361 71.561 70.4569 71.0151C70.5583 70.7651 70.6514 70.5068 70.7333 70.2471C71.2569 68.5985 71.3444 66.9068 70.9847 65.354C70.9194 65.061 70.8361 64.7721 70.7375 64.4957C70.5375 63.9304 70.2792 63.3985 69.9708 62.9137C69.7931 62.6346 69.5944 62.3623 69.3819 62.1068C69.3361 62.0498 69.2917 61.9971 69.2458 61.9443C67.6431 60.1179 65.2819 59.1123 62.5972 59.1123Z" fill="#ECEFFB"/>
<path d="M59.7778 66.7554C59.75 66.6762 59.7153 66.6012 59.668 66.5304C59.6389 66.4818 59.6042 66.4359 59.5653 66.3915C59.3305 66.1248 58.9889 65.9901 58.625 65.9901C58.5958 65.9901 58.5667 65.9915 58.5361 65.9929C58.1986 66.0123 57.85 66.1457 57.5555 66.3915C57.1833 66.7026 56.9805 67.1262 56.9694 67.5318C56.9611 67.8234 57.0514 68.1054 57.2472 68.329C57.4819 68.5957 57.8236 68.7304 58.1875 68.7304C58.5514 68.7304 58.9361 68.5971 59.2555 68.329C59.4069 68.2012 59.5319 68.0568 59.6264 67.8998C59.6708 67.8276 59.7069 67.7526 59.7389 67.6748C59.8639 67.3693 59.8792 67.0429 59.7778 66.7554Z" fill="#ECEFFB"/>
<path d="M58.6403 64.293C58.5917 64.1541 58.5264 64.0221 58.4472 63.8971C58.3931 63.8124 58.3347 63.7319 58.2667 63.6541C57.8528 63.1819 57.2486 62.9457 56.6083 62.9457C56.0236 62.9457 55.4097 63.1416 54.8778 63.5332C54.8264 63.5721 54.775 63.611 54.725 63.6527C53.5958 64.5943 53.3528 66.1249 54.1805 67.068C54.218 67.1096 54.2555 67.1499 54.2958 67.1874C54.7014 67.5791 55.2542 67.7735 55.8389 67.7735C56.2139 67.7735 56.6028 67.693 56.9736 67.5319C57.2361 67.418 57.4889 67.2624 57.7236 67.068C57.9903 66.843 58.2097 66.5874 58.375 66.3124C58.4375 66.2082 58.4931 66.1013 58.5389 65.993C58.55 65.9666 58.5611 65.9416 58.5708 65.9152C58.7903 65.3749 58.8167 64.7999 58.6403 64.293Z" fill="#ECEFFB"/>
<path d="M104.782 105.335H51.5167L48.8014 101.633H101.532L104.782 105.335Z" fill="#3F61DB"/>
<path d="M104.782 105.647H51.518C51.418 105.647 51.325 105.6 51.2667 105.519L48.55 101.818C48.4805 101.724 48.4694 101.597 48.5236 101.492C48.5764 101.386 48.6847 101.321 48.8028 101.321H101.533C101.624 101.321 101.708 101.36 101.768 101.428L105.018 105.129C105.099 105.221 105.118 105.353 105.068 105.464C105.015 105.576 104.904 105.647 104.782 105.647ZM51.675 105.022H104.09L101.389 101.946H49.4167L51.675 105.022Z" fill="#ECEFFB"/>
<path d="M98.2153 62.7749C98.6861 62.7749 99.007 63.1416 98.9347 63.5957C98.8625 64.0471 98.4236 64.4138 97.9542 64.4138H76.6986C76.6125 63.8596 76.4903 63.3096 76.3333 62.7749H98.2153Z" fill="#3957C5"/>
<path d="M97.9542 64.7262H76.6986C76.5444 64.7262 76.4139 64.6137 76.3903 64.461C76.3069 63.9207 76.1875 63.3832 76.0333 62.8623C76.0055 62.7679 76.0236 62.6651 76.0833 62.5873C76.1416 62.5082 76.2347 62.4623 76.3333 62.4623H98.2166C98.5361 62.4623 98.8305 62.5929 99.0236 62.8193C99.2153 63.0443 99.2944 63.3373 99.2444 63.6443C99.1472 64.2512 98.5805 64.7262 97.9542 64.7262ZM76.9639 64.1012H97.9542C98.2708 64.1012 98.5792 63.8471 98.6264 63.5457C98.6458 63.4221 98.618 63.3082 98.5472 63.2248C98.4722 63.136 98.3542 63.0873 98.2153 63.0873H76.743C76.8305 63.4221 76.9041 63.761 76.9639 64.1012Z" fill="#3957C5"/>
<path d="M99.5472 54.4291C100.018 54.4291 100.339 54.7957 100.267 55.2499C100.194 55.7013 99.7555 56.068 99.2861 56.068H76.9403C76.4708 56.068 76.15 55.7013 76.2222 55.2499C76.2944 54.7971 76.7319 54.4291 77.2014 54.4291H99.5472Z" fill="#3957C5"/>
<path d="M99.2861 56.3804H76.9402C76.6208 56.3804 76.3277 56.2513 76.1347 56.0249C75.943 55.7999 75.8653 55.5082 75.9139 55.2013C76.0111 54.5943 76.5764 54.1179 77.2014 54.1179H99.5472C99.8666 54.1179 100.161 54.2485 100.354 54.4749C100.546 54.6999 100.625 54.9929 100.575 55.2999C100.479 55.9054 99.9125 56.3804 99.2861 56.3804ZM77.2014 54.7415C76.8861 54.7415 76.5791 54.9971 76.5305 55.2985C76.5111 55.4221 76.5389 55.536 76.6097 55.6193C76.6847 55.7068 76.8014 55.7554 76.9402 55.7554H99.2861C99.6027 55.7554 99.9111 55.5013 99.9583 55.1999C99.9778 55.0763 99.95 54.9624 99.8791 54.879C99.8041 54.7901 99.6861 54.7415 99.5472 54.7415H77.2014Z" fill="#3957C5"/>
<path d="M94.2222 87.8152C94.6931 87.8152 95.0139 88.1818 94.9417 88.6332C94.8694 89.086 94.4306 89.4541 93.9597 89.4541H60.9972C60.5292 89.4541 60.2069 89.0874 60.2792 88.6332C60.3514 88.1818 60.7903 87.8152 61.2583 87.8152H94.2222Z" fill="#3957C5"/>
<path d="M93.9611 89.7666H60.9972C60.6792 89.7666 60.3861 89.6374 60.1931 89.411C60.0014 89.186 59.9222 88.893 59.9722 88.5846C60.0694 87.9777 60.6347 87.5027 61.2597 87.5027H94.2222C94.5417 87.5027 94.8361 87.6332 95.0292 87.8596C95.2208 88.0846 95.2986 88.3763 95.25 88.6832C95.1542 89.2902 94.5875 89.7666 93.9611 89.7666ZM61.2583 88.1277C60.9431 88.1277 60.6361 88.3819 60.5875 88.6832C60.5681 88.8069 60.5958 88.9221 60.6667 89.0055C60.7417 89.0944 60.8583 89.143 60.9958 89.143H93.9597C94.2764 89.143 94.5847 88.8874 94.6319 88.586C94.6514 88.4638 94.6236 88.3499 94.5528 88.2666C94.4778 88.1777 94.3597 88.1291 94.2208 88.1291H61.2583V88.1277Z" fill="#3957C5"/>
<path d="M80.2014 69.1888C80.1764 69.029 80.1486 68.8693 80.118 68.711C80.1153 68.6957 80.1125 68.6804 80.1097 68.6652C80.1042 68.636 80.0958 68.6068 80.0903 68.5763C80.0639 68.4471 80.0347 68.3179 80.0042 68.1902C79.993 68.1429 79.9819 68.0943 79.9694 68.0471C79.9278 67.8804 79.8833 67.7151 79.8361 67.5513C79.7708 67.3276 79.6958 67.1068 79.618 66.8874C79.6083 66.8596 79.6014 66.8318 79.5903 66.804C79.5805 66.7749 79.5667 66.7471 79.5569 66.7193C79.4833 66.5193 79.4055 66.3221 79.3208 66.1263C79.3139 66.1082 79.3069 66.0915 79.2986 66.0735C79.2069 65.8638 79.1069 65.6568 79.0042 65.4513C78.9917 65.4277 78.9819 65.404 78.9708 65.3804C78.9542 65.3471 78.9333 65.3138 78.9167 65.2804C78.8458 65.1457 78.7722 65.0138 78.6972 64.8804C78.6653 64.8263 78.6361 64.7707 78.6028 64.7165C78.4958 64.536 78.3847 64.3568 78.2667 64.1804C78.2667 64.179 78.2653 64.179 78.2653 64.1776C78.1667 64.0304 78.0653 63.8846 77.9597 63.7401L74.4569 58.9651C74.5639 59.1096 74.6653 59.2568 74.7653 59.4054C74.8833 59.5818 74.9944 59.761 75.1014 59.9415C75.1333 59.9957 75.1639 60.0513 75.1958 60.1054C75.2708 60.2374 75.3444 60.3707 75.4153 60.504C75.4458 60.561 75.475 60.6179 75.5042 60.6749C75.6083 60.8804 75.7069 61.0874 75.7986 61.2971C75.8055 61.3138 75.8125 61.3318 75.8194 61.3499C75.9042 61.5457 75.9819 61.7429 76.0555 61.9429C76.0764 61.9985 76.0972 62.0554 76.1167 62.111C76.1944 62.3304 76.268 62.5513 76.3333 62.7749C76.3819 62.9388 76.425 63.104 76.4667 63.2707C76.4792 63.3193 76.4903 63.3665 76.5014 63.4151C76.5319 63.5429 76.5597 63.6707 76.5861 63.7999C76.5958 63.8457 76.6055 63.8901 76.6139 63.936C76.6444 64.0943 76.6736 64.254 76.6972 64.4138C77.0361 66.5902 76.8375 68.8874 76.1264 71.1221C75.9528 71.6735 75.7444 72.2207 75.5083 72.761C75.4597 72.8721 75.4083 72.9818 75.3583 73.0915C75.318 73.1777 75.2778 73.2638 75.2361 73.3499C75.2014 73.4207 75.1667 73.4929 75.1319 73.5638C75.0889 73.6499 75.0444 73.7346 75 73.8207C74.9639 73.8915 74.9264 73.961 74.8889 74.0304C74.843 74.1165 74.7958 74.2013 74.7472 74.2874C74.7083 74.3568 74.6694 74.4249 74.6305 74.4943C74.5805 74.579 74.5305 74.6652 74.4792 74.7499C74.4417 74.8124 74.4055 74.8735 74.3667 74.936C74.2333 75.1513 74.0958 75.3652 73.9528 75.5763C73.925 75.6179 73.8958 75.6596 73.8667 75.7026C73.7194 75.9179 73.5667 76.1304 73.4083 76.3415C73.3889 76.3665 73.3694 76.3915 73.3514 76.4151C73.225 76.5804 73.0958 76.7443 72.9639 76.9068C72.9278 76.9513 72.8917 76.9957 72.8542 77.0415C72.7042 77.2221 72.55 77.4027 72.3917 77.579C72.3667 77.6068 72.3417 77.6332 72.3167 77.661C72.1875 77.804 72.0555 77.9443 71.9208 78.0846C71.8764 78.1318 71.8305 78.1777 71.7847 78.2235C71.643 78.3679 71.4972 78.5124 71.35 78.6526C71.3292 78.6735 71.3083 78.6943 71.2875 78.7138C71.1986 78.7971 71.1083 78.879 71.018 78.9624C70.9694 79.0068 70.9208 79.0526 70.8708 79.0971C70.7292 79.2235 70.5861 79.3471 70.4403 79.4707C70.2583 79.6235 70.0778 79.7679 69.8986 79.9082C69.8861 79.9179 69.8736 79.9276 69.8611 79.9374C69.693 80.0679 69.5264 80.1929 69.3597 80.3152C69.3319 80.336 69.3028 80.3568 69.275 80.3776C69.125 80.486 68.975 80.5915 68.825 80.6929C68.6153 80.836 68.4042 80.9749 68.193 81.1082C67.9847 81.2388 67.775 81.3638 67.5625 81.4846C67.5069 81.5165 67.4514 81.5457 67.3958 81.5776C67.2097 81.6818 67.0236 81.7832 66.8361 81.8804C66.7653 81.9165 66.6944 81.954 66.6236 81.9902C66.418 82.0943 66.2111 82.1929 66.0028 82.2888C65.9653 82.3054 65.9292 82.3235 65.8917 82.3401C65.843 82.3624 65.793 82.3832 65.7444 82.404C65.6083 82.4638 65.4722 82.5235 65.3347 82.579C65.2667 82.6068 65.1986 82.6332 65.1305 82.661C65.0111 82.7082 64.8903 82.7554 64.7708 82.8013C64.6986 82.829 64.625 82.8554 64.5528 82.8818C64.4347 82.9249 64.3167 82.9652 64.1986 83.0054C64.1264 83.0304 64.0542 83.054 63.9805 83.0776C63.8833 83.1096 63.7847 83.1388 63.6875 83.1693C63.568 83.2054 63.4472 83.2415 63.3278 83.2763C63.2347 83.3027 63.1417 83.3277 63.0472 83.3527C62.9278 83.3846 62.8097 83.4151 62.6903 83.4443C62.5958 83.4679 62.5014 83.4902 62.4083 83.511C62.2889 83.5388 62.1694 83.5638 62.05 83.5888C61.9569 83.6082 61.8625 83.6276 61.7694 83.6443C61.6486 83.6665 61.5278 83.6888 61.4069 83.7082C61.3153 83.7235 61.2222 83.7388 61.1305 83.7527C61.0069 83.7707 60.8833 83.7874 60.7611 83.804C60.6722 83.8152 60.5819 83.8277 60.493 83.8388C60.3639 83.854 60.2361 83.8651 60.1083 83.8763C60.025 83.8832 59.9403 83.8929 59.8569 83.8985C59.7153 83.9096 59.575 83.9165 59.4347 83.9235C59.3639 83.9276 59.2944 83.9318 59.2236 83.9346C59.0125 83.9429 58.8028 83.9471 58.593 83.9471C56.2028 83.9471 53.8958 83.4235 51.8722 82.3763C51.2111 82.0346 50.5805 81.636 49.9875 81.1818L53.4903 85.9568C54.0833 86.411 54.7139 86.8082 55.375 87.1513C57.3972 88.1985 59.7055 88.7221 62.0944 88.7221C62.3042 88.7221 62.5139 88.7179 62.725 88.7096C62.7958 88.7068 62.8653 88.7013 62.9361 88.6985C63.0764 88.6915 63.218 88.6846 63.3583 88.6735C63.4417 88.6665 63.525 88.6582 63.6083 88.6513C63.7375 88.6401 63.8653 88.6277 63.9944 88.6138C64.0833 88.604 64.1722 88.5915 64.2611 88.5804C64.3847 88.5638 64.5083 88.5485 64.6319 88.529C64.7236 88.5151 64.8167 88.4999 64.9083 88.4846C65.0292 88.4638 65.15 88.4429 65.2708 88.4207C65.3639 88.4026 65.4583 88.3846 65.5514 88.3651C65.6708 88.3401 65.7903 88.3151 65.9097 88.2874C66.0042 88.2665 66.0972 88.2443 66.1903 88.2207C66.3097 88.1915 66.4292 88.161 66.5486 88.129C66.6417 88.104 66.7347 88.079 66.8278 88.0526C66.9486 88.0179 67.068 87.9818 67.1889 87.9457C67.2486 87.9277 67.3097 87.911 67.3694 87.8929C67.4069 87.8804 67.4444 87.8679 67.4819 87.8554C67.5542 87.8318 67.6264 87.8068 67.7 87.7832C67.818 87.7429 67.9361 87.7027 68.0542 87.6596C68.1264 87.6332 68.2 87.6068 68.2722 87.579C68.393 87.5346 68.5125 87.4874 68.6319 87.4388C68.7 87.411 68.768 87.3846 68.8361 87.3568C68.9736 87.2999 69.1097 87.2415 69.2458 87.1818C69.2944 87.1596 69.3444 87.1401 69.393 87.1179C69.4014 87.1138 69.4111 87.1096 69.4194 87.1068C69.4472 87.0943 69.475 87.079 69.5028 87.0665C69.7111 86.9707 69.918 86.8721 70.1236 86.7679C70.1944 86.7318 70.2653 86.6957 70.3361 86.6582C70.5236 86.561 70.7111 86.4596 70.8958 86.3554C70.9361 86.3332 70.9764 86.3138 71.0153 86.2901C71.0305 86.2818 71.0472 86.2707 71.0625 86.2624C71.2736 86.1415 71.4847 86.0165 71.693 85.886C71.9055 85.7526 72.1153 85.6138 72.325 85.4707C72.3444 85.4582 72.3625 85.4457 72.3819 85.4332C72.5125 85.3429 72.6444 85.2499 72.775 85.1554C72.8028 85.1346 72.8319 85.1138 72.8597 85.0929C73.0264 84.9707 73.193 84.8457 73.3597 84.7152C73.3722 84.7054 73.3847 84.6957 73.3972 84.686C73.4861 84.6165 73.5764 84.5457 73.6653 84.4721C73.7555 84.3985 73.8472 84.3235 73.9375 84.2471C74.0833 84.1235 74.2264 83.9999 74.368 83.8735C74.418 83.829 74.4653 83.7846 74.5139 83.7401C74.6042 83.6568 74.6958 83.5749 74.7847 83.4901C74.7889 83.486 74.7944 83.4818 74.7986 83.4776C74.8153 83.4624 74.8305 83.4457 74.8458 83.4304C74.9944 83.2888 75.1389 83.1443 75.2819 82.9999C75.3278 82.954 75.3722 82.9068 75.4167 82.861C75.5514 82.7207 75.6833 82.5804 75.8125 82.4374C75.8319 82.4165 75.8528 82.3957 75.8708 82.3749C75.8764 82.3693 75.8805 82.3624 75.8861 82.3568C76.0444 82.179 76.1986 81.9999 76.3486 81.8193C76.3861 81.7749 76.4222 81.7304 76.4583 81.686C76.5903 81.5235 76.7208 81.3596 76.8458 81.1943C76.8597 81.1749 76.8764 81.1568 76.8903 81.1374C76.8944 81.1318 76.8986 81.1263 76.9028 81.1207C77.0611 80.9096 77.2139 80.6971 77.3611 80.4818C77.3903 80.4401 77.418 80.3985 77.4472 80.3568C77.5903 80.1443 77.7292 79.9304 77.8625 79.7152C77.8708 79.7013 77.8805 79.6888 77.8889 79.6749C77.918 79.6263 77.9458 79.5776 77.975 79.529C78.0264 79.4443 78.0764 79.3596 78.1264 79.2735C78.1667 79.204 78.2042 79.1346 78.243 79.0665C78.2903 78.9818 78.3375 78.8971 78.3833 78.811C78.4208 78.7415 78.4583 78.6707 78.4944 78.5999C78.5389 78.5151 78.5833 78.429 78.625 78.3429C78.6611 78.2721 78.6958 78.2013 78.7305 78.129C78.7722 78.0429 78.8125 77.9568 78.8528 77.8707C78.8694 77.8332 78.8889 77.7971 78.9055 77.7596C78.9389 77.686 78.9708 77.6138 79.0028 77.5401C79.2403 76.9999 79.4472 76.4526 79.6208 75.9013C80.3417 73.6638 80.5403 71.3665 80.2014 69.1888Z" fill="#3F61DB"/>
<path d="M62.0944 89.0346C59.6333 89.0346 57.2611 88.479 55.2305 87.4276C54.5486 87.0749 53.9 86.6638 53.2986 86.204C53.275 86.186 53.2541 86.1652 53.2361 86.1402L49.7333 81.3652C49.6416 81.2402 49.6555 81.0665 49.7667 80.9568C49.8778 80.8485 50.0514 80.8374 50.175 80.9318C50.7458 81.3693 51.3639 81.761 52.0139 82.0971C53.9555 83.1026 56.2292 83.6332 58.5903 83.6332C58.7861 83.6332 58.9944 83.629 59.2083 83.6207C59.2486 83.6193 59.2875 83.6165 59.3278 83.6138L59.4153 83.6082C59.5542 83.6013 59.6917 83.5943 59.8305 83.5832C59.8847 83.579 59.9389 83.5735 59.9917 83.5693L60.0764 83.561C60.2055 83.5499 60.3305 83.5374 60.4542 83.5235C60.5194 83.5165 60.5847 83.5068 60.65 83.4985L60.718 83.4901C60.8389 83.4749 60.9597 83.4582 61.0819 83.4402C61.1625 83.4277 61.2444 83.4138 61.325 83.3999L61.3528 83.3957C61.4708 83.3763 61.5903 83.3554 61.7083 83.3332C61.8 83.3151 61.8917 83.2971 61.9847 83.2776C62.1014 83.254 62.2194 83.2276 62.3361 83.2013C62.4292 83.1804 62.5208 83.1582 62.6139 83.136C62.7305 83.1068 62.8486 83.0776 62.9653 83.0457C63.0569 83.0207 63.1486 82.9971 63.2403 82.9707C63.3583 82.9374 63.4764 82.9013 63.5944 82.8651L63.6333 82.8526C63.7167 82.8276 63.8 82.8013 63.8819 82.7749C63.9542 82.7513 64.025 82.7276 64.0958 82.704C64.2125 82.6651 64.3278 82.6249 64.4444 82.5818C64.5153 82.5554 64.5875 82.5304 64.6583 82.5027C64.7764 82.4582 64.8944 82.4124 65.0125 82.3652L65.0667 82.3443C65.1153 82.3249 65.1653 82.3054 65.2139 82.286C65.3486 82.2304 65.4819 82.1721 65.6167 82.1138L65.6805 82.086C65.7069 82.0749 65.7347 82.0624 65.7611 82.0513L65.8694 81.9999C66.0694 81.9082 66.275 81.8096 66.4792 81.7068C66.5486 81.6721 66.6194 81.636 66.6889 81.5999C66.8722 81.5054 67.0569 81.4054 67.2403 81.3026L67.3083 81.2651C67.3403 81.2471 67.3722 81.2304 67.4042 81.2124C67.6319 81.0818 67.8347 80.961 68.0236 80.8415C68.2167 80.7207 68.4194 80.5874 68.6458 80.4332C68.793 80.3318 68.9417 80.229 69.0889 80.1221L69.1722 80.061C69.3528 79.929 69.5139 79.8068 69.6653 79.6888L69.7028 79.6582C69.8903 79.511 70.0653 79.3693 70.2347 79.2276C70.3778 79.1068 70.518 78.9846 70.6569 78.861C70.6861 78.8346 70.7139 78.8082 70.743 78.7818L70.8375 78.6957C70.9139 78.6263 70.9917 78.5554 71.0667 78.4846L71.1292 78.4249C71.2694 78.2901 71.4097 78.1526 71.5583 78.0013C71.6028 77.9554 71.6472 77.9096 71.6917 77.8638C71.8236 77.7263 71.9541 77.5874 72.0805 77.4471L72.1542 77.3679C72.3014 77.204 72.45 77.0304 72.6097 76.8388L72.718 76.7068C72.8555 76.5388 72.9805 76.3804 73.0986 76.2235L73.1555 76.1513C73.3 75.9596 73.4472 75.754 73.6055 75.5235L73.6903 75.3999C73.8347 75.1874 73.9708 74.9749 74.0972 74.7707C74.1292 74.7179 74.1611 74.6652 74.193 74.6124L74.2069 74.5888C74.2569 74.5054 74.3069 74.4221 74.3555 74.3374C74.3903 74.2776 74.4236 74.2179 74.4569 74.1582L74.4708 74.1332C74.518 74.0499 74.5639 73.9652 74.6097 73.8818C74.6472 73.8138 74.6833 73.7443 74.7194 73.6749C74.7625 73.5915 74.8055 73.5068 74.8486 73.4235C74.8833 73.354 74.918 73.2846 74.9514 73.2138C74.9917 73.129 75.0319 73.0457 75.0708 72.961L75.0833 72.9318C75.1291 72.8332 75.175 72.7346 75.218 72.636C75.4528 72.0999 75.6583 71.5596 75.825 71.0276C76.5208 68.8443 76.7139 66.5749 76.3847 64.4624C76.3625 64.3179 76.3361 64.1651 76.3028 63.9957L76.275 63.8624C76.2486 63.736 76.2222 63.611 76.1917 63.486L76.1569 63.3443C76.1111 63.1596 76.0694 63.0054 76.0264 62.8624C75.9694 62.6693 75.9028 62.4638 75.8139 62.2138C75.7944 62.1596 75.775 62.104 75.7542 62.0499C75.675 61.8374 75.6 61.6485 75.5236 61.4721L75.5028 61.4207C75.4222 61.236 75.3292 61.0388 75.2153 60.8151C75.1875 60.7596 75.1583 60.704 75.1292 60.6485C75.0597 60.5179 74.9889 60.3888 74.9153 60.2596L74.8861 60.2096C74.8653 60.1735 74.8444 60.136 74.8222 60.0999C74.7055 59.904 74.5986 59.7332 74.4944 59.5776C74.3972 59.4318 74.2958 59.2874 74.1944 59.1485C74.093 59.0096 74.1222 58.8138 74.2611 58.7124C74.4 58.611 74.5958 58.6401 74.6972 58.779L74.6986 58.7804L78.2 63.554C78.3069 63.6999 78.4125 63.8513 78.5139 64.0027C78.5153 64.0054 78.5167 64.0082 78.5194 64.011C78.6292 64.1763 78.7403 64.354 78.8611 64.5554C78.8847 64.5943 78.9055 64.6332 78.9278 64.6707L78.9569 64.7221C79.0347 64.8582 79.1097 64.9943 79.1819 65.1318L79.2014 65.1679C79.2139 65.1901 79.2264 65.2124 79.2375 65.2346C79.2458 65.2499 79.2528 65.2665 79.2597 65.2818L79.2708 65.3068C79.3889 65.5401 79.4875 65.7485 79.5736 65.9457L79.5958 65.9985C79.6778 66.1901 79.7569 66.3888 79.8389 66.6082L79.85 66.6374C79.8583 66.6568 79.8667 66.6763 79.8736 66.6971C79.8805 66.7151 79.8861 66.7346 79.8916 66.754L79.9014 66.7832C79.993 67.0401 80.0639 67.2568 80.1236 67.4624C80.168 67.6138 80.2111 67.7749 80.2611 67.9693C80.2708 68.0068 80.2792 68.0457 80.2889 68.0832L80.2972 68.1165C80.3292 68.2485 80.3583 68.3804 80.3847 68.5124L80.393 68.5471C80.3972 68.5652 80.4014 68.5832 80.4055 68.6026L80.4139 68.6513C80.4486 68.8318 80.4764 68.9915 80.5 69.1415C80.843 71.3499 80.643 73.7179 79.918 75.9915C79.7444 76.5415 79.5319 77.104 79.2875 77.661C79.2555 77.7346 79.2222 77.8096 79.1889 77.8832C79.1778 77.9068 79.168 77.929 79.1569 77.9513L79.1347 77.9971C79.0944 78.0846 79.0528 78.1721 79.0111 78.2582C78.9764 78.3318 78.9403 78.404 78.9042 78.4763C78.8611 78.5638 78.8167 78.6499 78.7708 78.7374C78.7333 78.8096 78.6958 78.8804 78.6569 78.9527C78.6097 79.0402 78.5625 79.1263 78.5139 79.2124L78.493 79.2499C78.4611 79.3082 78.4278 79.3665 78.3944 79.4235C78.3444 79.511 78.293 79.5971 78.2403 79.6832L78.2042 79.7429C78.1875 79.7721 78.1694 79.8013 78.1528 79.8304L78.1333 79.861C77.9944 80.0846 77.8528 80.304 77.7041 80.5235L77.6167 80.6499C77.4514 80.8901 77.2986 81.1026 77.15 81.2999L77.0917 81.3763C76.9694 81.536 76.8375 81.7054 76.6972 81.8763L76.6833 81.8943C76.6514 81.9332 76.6194 81.9735 76.5861 82.0124C76.4208 82.211 76.268 82.3901 76.1153 82.5596L76.0986 82.579C76.0875 82.5915 76.075 82.6054 76.0625 82.6179L76.0389 82.6429C75.9069 82.7874 75.7736 82.9304 75.6375 83.0721C75.5917 83.1193 75.5458 83.1665 75.5 83.2138C75.3458 83.3707 75.2 83.5138 75.0569 83.6513L75.0403 83.6679C75.0291 83.679 75.0194 83.6888 75.0083 83.6999C75.0069 83.7013 74.9972 83.7096 74.9958 83.711C74.918 83.7846 74.8389 83.8568 74.7597 83.929L74.6639 84.0179C74.6333 84.0457 74.6028 84.0749 74.5708 84.1026C74.4278 84.2304 74.2819 84.3568 74.1333 84.4818C74.0403 84.5596 73.9486 84.636 73.8569 84.7096C73.7653 84.7832 73.675 84.8554 73.5847 84.9263L73.5472 84.9568C73.3889 85.0804 73.2222 85.2068 73.0389 85.3402L72.9528 85.404C72.8194 85.4999 72.6861 85.5957 72.5528 85.6874C72.5403 85.6957 72.5278 85.704 72.5153 85.7124L72.4944 85.7263C72.2625 85.8846 72.0514 86.0221 71.8514 86.1485C71.6528 86.2735 71.443 86.3985 71.2111 86.5318L71.1625 86.561C71.1389 86.5749 71.1139 86.5874 71.0903 86.5999C71.0736 86.6082 71.0569 86.6165 71.0417 86.6263C70.8514 86.7332 70.6597 86.836 70.4722 86.9332C70.4 86.9707 70.3278 87.0082 70.2555 87.0443C70.043 87.1513 69.8305 87.2527 69.625 87.3471L69.593 87.3624C69.575 87.3707 69.5569 87.3804 69.5389 87.3874L69.5194 87.3957C69.4819 87.4124 69.4514 87.4263 69.4208 87.4388L69.3625 87.4638C69.2236 87.5249 69.0847 87.5846 68.9458 87.6415C68.8972 87.6624 68.8472 87.6818 68.7972 87.7013L68.7389 87.7249C68.6167 87.7735 68.4944 87.8207 68.3722 87.8665C68.2986 87.8943 68.225 87.9207 68.1514 87.9485C68.0319 87.9915 67.9111 88.0332 67.7917 88.0749C67.7153 88.0999 67.643 88.1249 67.5708 88.1485L67.5236 88.1638C67.5014 88.1721 67.4778 88.179 67.4555 88.186C67.4194 88.1971 67.3833 88.2082 67.3458 88.2179L67.2722 88.2402C67.15 88.2777 67.0278 88.3138 66.9055 88.3485C66.8111 88.3749 66.7167 88.4013 66.6222 88.4263C66.5 88.4582 66.3792 88.4902 66.2569 88.5193C66.1625 88.5429 66.0667 88.5652 65.9708 88.5874C65.8486 88.6152 65.7278 88.6415 65.6055 88.6665C65.5097 88.686 65.4153 88.7054 65.3194 88.7235C65.1972 88.7471 65.0736 88.7679 64.95 88.7888L64.918 88.7943C64.8347 88.8082 64.7528 88.8221 64.6694 88.8346C64.543 88.854 64.418 88.8707 64.2917 88.886L64.2236 88.8943C64.1555 88.9026 64.0875 88.9124 64.0208 88.9193C63.8903 88.9346 63.7597 88.9457 63.6292 88.9582L63.5458 88.9665C63.4875 88.9721 63.4305 88.9776 63.3722 88.9818C63.2278 88.9929 63.0847 88.9999 62.9417 89.0068L62.8611 89.011C62.8167 89.0138 62.7722 89.0165 62.7278 89.0179C62.5153 89.0304 62.2986 89.0346 62.0944 89.0346ZM53.7153 85.7346C54.2764 86.161 54.8833 86.5429 55.5194 86.8721C57.4611 87.8776 59.7347 88.4082 62.0958 88.4082C62.2917 88.4082 62.5 88.404 62.7139 88.3957C62.7542 88.3943 62.7944 88.3915 62.8347 88.3888L62.9208 88.3832C63.0597 88.3763 63.1972 88.3693 63.3361 88.3582C63.3903 88.354 63.4444 88.3485 63.4986 88.3443L63.5833 88.336C63.7111 88.3249 63.8361 88.3124 63.9625 88.2985C64.0264 88.2915 64.0903 88.2832 64.1555 88.2749L64.225 88.2652C64.3458 88.2499 64.468 88.2332 64.5889 88.2152C64.668 88.2027 64.7486 88.1901 64.8278 88.1763L64.8597 88.1707C64.9792 88.1513 65.0972 88.1304 65.2153 88.1082C65.3069 88.0901 65.3986 88.0721 65.4917 88.0526C65.6097 88.029 65.7264 88.0026 65.8444 87.9763C65.9361 87.9554 66.0292 87.9332 66.1208 87.911C66.2389 87.8818 66.3555 87.8513 66.4736 87.8207C66.5653 87.7957 66.6569 87.7721 66.7472 87.7457C66.8653 87.7124 66.9833 87.6763 67.1014 87.6402L67.1847 87.6152C67.2167 87.6054 67.2472 87.5971 67.2778 87.5874L67.3889 87.5499C67.4583 87.5276 67.5292 87.504 67.5986 87.4804C67.718 87.4401 67.8347 87.3999 67.95 87.3582C68.0208 87.3318 68.093 87.3068 68.1639 87.279C68.2819 87.2346 68.4 87.1888 68.518 87.1415L68.5778 87.1179C68.625 87.0999 68.6708 87.0804 68.718 87.0624C68.8528 87.0068 68.9875 86.9485 69.1208 86.8901L69.1847 86.8624C69.2125 86.8513 69.2389 86.8388 69.2653 86.8276L69.3264 86.7999C69.343 86.7915 69.3583 86.7846 69.375 86.7763C69.5736 86.6846 69.7792 86.586 69.9861 86.4832C70.0569 86.4485 70.1264 86.4124 70.1958 86.3763C70.3778 86.2818 70.5625 86.1818 70.7472 86.079C70.768 86.0679 70.7889 86.0568 70.8097 86.0457C70.8278 86.036 70.8458 86.0263 70.8639 86.0165L70.9097 85.9888C71.1361 85.8596 71.3389 85.7374 71.5305 85.6179C71.7236 85.4971 71.9278 85.3638 72.1528 85.2096L72.2083 85.1735C72.3375 85.0846 72.4667 84.9929 72.5958 84.8999L72.6805 84.8374C72.8583 84.7068 73.0194 84.586 73.1722 84.4652L73.2097 84.4346C73.2958 84.3665 73.3847 84.2971 73.4736 84.2249C73.5625 84.1526 73.6528 84.079 73.7417 84.004C73.8847 83.8832 74.025 83.761 74.1639 83.6374C74.193 83.6124 74.2208 83.586 74.2472 83.561L74.3472 83.4693C74.4222 83.3999 74.4986 83.3318 74.5722 83.261C74.5736 83.2596 74.5805 83.2526 74.5833 83.2513L74.6347 83.2013C74.7736 83.0693 74.9139 82.9304 75.0639 82.7776C75.1083 82.7318 75.1528 82.686 75.1972 82.6402C75.3292 82.5027 75.4597 82.3638 75.5861 82.2235L75.6597 82.1429C75.8055 81.979 75.9555 81.8068 76.1153 81.6138C76.1472 81.5763 76.1778 81.5388 76.2083 81.4999L76.2236 81.4818C76.3583 81.3165 76.4875 81.1526 76.6055 80.9985L76.6625 80.9249C76.8055 80.736 76.9528 80.5304 77.1125 80.2985L77.1958 80.1763C77.3403 79.9638 77.4764 79.7513 77.6042 79.5457L77.6292 79.5068C77.6444 79.4818 77.6597 79.4554 77.675 79.429L77.7139 79.3638C77.7639 79.2804 77.8139 79.1971 77.8625 79.1138C77.8944 79.0582 77.9264 79.0026 77.9569 78.9457L77.9778 78.9082C78.0236 78.8249 78.0708 78.7415 78.1153 78.6582C78.1528 78.5888 78.1889 78.5207 78.225 78.4513C78.268 78.3679 78.3111 78.2846 78.3528 78.1999C78.3875 78.129 78.4222 78.0596 78.4569 77.9888C78.4972 77.9054 78.5375 77.8207 78.5764 77.736L78.6292 77.6263C78.6611 77.5554 78.693 77.4846 78.725 77.4124C78.9611 76.8749 79.1653 76.3346 79.3319 75.804C80.0278 73.6207 80.2208 71.3513 79.8916 69.2388C79.8694 69.0971 79.843 68.9457 79.8097 68.7735L79.7833 68.6415C79.7569 68.5151 79.7292 68.3902 79.7 68.2652L79.6917 68.2304C79.6833 68.1957 79.675 68.1596 79.6666 68.1249C79.6194 67.9388 79.5778 67.7846 79.5361 67.6415C79.4791 67.4457 79.4111 67.2401 79.3236 66.9943C79.318 66.9763 79.3125 66.961 79.3069 66.9443C79.3042 66.9346 79.3 66.9235 79.2972 66.9138C79.293 66.9026 79.2889 66.8929 79.2847 66.8832C79.2778 66.8665 79.2708 66.8485 79.2639 66.8318C79.1861 66.6235 79.1111 66.4332 79.0333 66.254L79.0125 66.2026C78.9319 66.0165 78.8375 65.8179 78.725 65.5957C78.718 65.5818 78.7097 65.5651 78.7028 65.5499L78.6917 65.5249C78.6847 65.511 78.6764 65.4957 78.668 65.4818C78.6583 65.4651 78.6486 65.4471 78.6389 65.429C78.5694 65.2971 78.4986 65.1679 78.425 65.0388L78.3944 64.9846C78.375 64.9499 78.3542 64.9138 78.3333 64.879C78.2167 64.6832 78.1097 64.511 78.0055 64.3568C78.0042 64.3554 78.0028 64.3527 78.0014 64.3499C77.9055 64.2068 77.8055 64.0651 77.7055 63.9276L76.5097 62.2971C76.5569 62.4374 76.5972 62.5665 76.6333 62.6901C76.6778 62.8415 76.7222 63.0026 76.7708 63.1971L76.8069 63.3443C76.8375 63.4763 76.8667 63.6068 76.8944 63.7388L76.9236 63.8777C76.9583 64.0554 76.9861 64.2152 77.0097 64.3679C77.3528 66.5763 77.1514 68.9443 76.4278 71.2179C76.2542 71.7693 76.0417 72.3318 75.7972 72.8874C75.7528 72.9901 75.7041 73.0929 75.6569 73.1957L75.6444 73.2235C75.6042 73.311 75.5625 73.3985 75.5208 73.486C75.4861 73.5582 75.45 73.6304 75.4139 73.704C75.3694 73.7915 75.325 73.879 75.2805 73.9651C75.243 74.036 75.2055 74.1082 75.168 74.179C75.1208 74.2665 75.0722 74.3526 75.0236 74.4401L75.0097 74.4652C74.975 74.5277 74.9403 74.5888 74.9042 74.6513C74.8542 74.7388 74.8028 74.8249 74.75 74.911L74.7361 74.9346C74.7028 74.9902 74.6694 75.0457 74.6361 75.0999C74.5055 75.3124 74.3639 75.5318 74.2139 75.7526L74.1264 75.8804C73.9625 76.1193 73.8097 76.3318 73.6597 76.5304L73.6014 76.6054C73.4778 76.7679 73.3486 76.9318 73.2069 77.1054L73.0944 77.2415C72.9305 77.4402 72.7764 77.6179 72.6236 77.7874L72.5472 77.8693C72.4153 78.0138 72.2819 78.1568 72.1444 78.2999C72.0986 78.3471 72.0528 78.3943 72.0069 78.4415C71.8542 78.5971 71.7097 78.7401 71.5639 78.879L71.5 78.9415C71.4222 79.0152 71.343 79.0874 71.2625 79.161L71.1722 79.2443C71.1403 79.2735 71.1097 79.3026 71.0778 79.3304C70.9347 79.4582 70.7889 79.5846 70.6403 79.7096C70.4639 79.8568 70.2847 80.0026 70.0903 80.154L70.0528 80.1846C69.8958 80.3068 69.7292 80.4332 69.5444 80.5679L69.4583 80.6318C69.3055 80.7429 69.1528 80.8485 69.0014 80.9526C68.7694 81.111 68.5583 81.2485 68.3583 81.3749C68.1611 81.4985 67.9514 81.6235 67.718 81.7582C67.6833 81.7776 67.6486 81.7971 67.6125 81.8165L67.5486 81.8527C67.3597 81.9582 67.168 82.0624 66.9792 82.1596C66.9069 82.1971 66.8347 82.2346 66.7625 82.2707C66.55 82.3776 66.3389 82.479 66.1319 82.5735L66.0833 82.5957C66.0625 82.6054 66.0403 82.6165 66.0194 82.6263C65.9889 82.6401 65.9583 82.6527 65.9278 82.6665L65.868 82.6915C65.7292 82.7526 65.5903 82.8124 65.4514 82.8693C65.4 82.8901 65.3486 82.911 65.2958 82.9318L65.243 82.9527C65.1208 83.0013 65 83.0485 64.8764 83.0943C64.8028 83.1221 64.7292 83.1485 64.6542 83.1763C64.5347 83.2193 64.4139 83.261 64.2944 83.3013C64.2208 83.3263 64.1472 83.3513 64.0736 83.3749C63.9875 83.4026 63.9 83.429 63.8139 83.4554L63.775 83.4665C63.6528 83.504 63.5305 83.5401 63.4083 83.5749C63.3139 83.6013 63.218 83.6276 63.1236 83.6526C63.0028 83.6846 62.8819 83.7165 62.7597 83.7457C62.6639 83.7693 62.568 83.7915 62.4722 83.8138C62.3514 83.8415 62.2292 83.8679 62.1083 83.8929C62.0139 83.9124 61.918 83.9318 61.8222 83.9499C61.6986 83.9735 61.5764 83.9943 61.4528 84.0151L61.425 84.0193C61.3403 84.0332 61.2555 84.0471 61.1708 84.061C61.0444 84.0804 60.9194 84.0971 60.7944 84.1124L60.7278 84.1207C60.6583 84.1304 60.5903 84.1388 60.5222 84.1471C60.393 84.1624 60.2639 84.1735 60.1347 84.186L60.0486 84.1943C59.9903 84.1999 59.9319 84.2054 59.875 84.2096C59.7319 84.2207 59.5889 84.2276 59.4458 84.2346L59.3639 84.2388C59.3194 84.2415 59.275 84.2443 59.2305 84.2457C59.0083 84.254 58.793 84.2582 58.5889 84.2582C56.1278 84.2582 53.7555 83.7027 51.725 82.6513C51.5708 82.5721 51.4194 82.4888 51.2694 82.404L53.7153 85.7346Z" fill="#ECEFFB"/>
<path d="M120.843 90.0374C121.984 90.0374 122.91 89.1121 122.91 87.9707C122.91 86.8293 121.984 85.9041 120.843 85.9041C119.702 85.9041 118.776 86.8293 118.776 87.9707C118.776 89.1121 119.702 90.0374 120.843 90.0374Z" fill="#ECEFFB"/>
<path d="M33.9347 82.4124C35.0761 82.4124 36.0014 81.4871 36.0014 80.3457C36.0014 79.2043 35.0761 78.2791 33.9347 78.2791C32.7933 78.2791 31.868 79.2043 31.868 80.3457C31.868 81.4871 32.7933 82.4124 33.9347 82.4124Z" fill="#ECEFFB"/>
<path d="M34.9694 84.0832C35.3714 84.0832 35.6972 83.7574 35.6972 83.3555C35.6972 82.9535 35.3714 82.6277 34.9694 82.6277C34.5675 82.6277 34.2417 82.9535 34.2417 83.3555C34.2417 83.7574 34.5675 84.0832 34.9694 84.0832Z" fill="#ECEFFB"/>
<path d="M45.2167 56.4193C46.3581 56.4193 47.2834 55.4941 47.2834 54.3527C47.2834 53.2113 46.3581 52.286 45.2167 52.286C44.0753 52.286 43.15 53.2113 43.15 54.3527C43.15 55.4941 44.0753 56.4193 45.2167 56.4193Z" fill="#ECEFFB"/>
<path d="M47.632 53.0082C48.0339 53.0082 48.3597 52.6824 48.3597 52.2805C48.3597 51.8785 48.0339 51.5527 47.632 51.5527C47.23 51.5527 46.9042 51.8785 46.9042 52.2805C46.9042 52.6824 47.23 53.0082 47.632 53.0082Z" fill="#ECEFFB"/>
<path d="M126.15 45.536C128.114 45.536 129.706 43.9441 129.706 41.9804C129.706 40.0167 128.114 38.4249 126.15 38.4249C124.186 38.4249 122.594 40.0167 122.594 41.9804C122.594 43.9441 124.186 45.536 126.15 45.536Z" fill="#E2E7FA"/>
<path d="M122.594 40.2249C123.53 40.2249 124.288 39.4669 124.288 38.5319C124.288 37.5968 123.53 36.8388 122.594 36.8388C121.659 36.8388 120.901 37.5968 120.901 38.5319C120.901 39.4669 121.659 40.2249 122.594 40.2249Z" fill="#ECEFFB"/>
</svg>
