<svg width="244" height="177" viewBox="0 0 244 177" fill="none" xmlns="http://www.w3.org/2000/svg">
<path fill-rule="evenodd" clip-rule="evenodd" d="M76.6565 1H167.344C175.438 1 182 7.51222 182 15.5455V106.455C182 114.488 175.438 121 167.344 121H76.6565C68.5619 121 62 114.488 62 106.455V15.5455C62 7.51222 68.5619 1 76.6565 1Z" fill="#F5FBFF" stroke="#3F61DB"/>
<g clip-path="url(#clip0_5033_3483)">
<path d="M113.131 58.0893C115.557 49.0345 116.77 44.5071 120.337 42.4479C123.903 40.3887 128.431 41.6018 137.486 44.028C146.54 46.4542 151.068 47.6673 153.127 51.234C155.186 54.8007 153.973 59.3281 151.547 68.3828C149.121 77.4375 147.908 81.9649 144.341 84.0243C140.774 86.0834 136.247 84.8703 127.192 82.4441C118.137 80.0179 113.61 78.8048 111.551 75.2382C109.491 71.6714 110.705 67.1439 113.131 58.0893Z" fill="#F5FBFF" stroke="#3F61DB" stroke-width="3.13983"/>
</g>
<g clip-path="url(#clip1_5033_3483)">
<path d="M92.9781 65.3856C90.1855 56.437 88.7892 51.9628 90.7016 48.3153C92.614 44.6677 97.0883 43.2714 106.037 40.4789C114.985 37.6863 119.46 36.29 123.107 38.2023C126.755 40.1148 128.151 44.589 130.944 53.5376C133.736 62.486 135.132 66.9604 133.22 70.608C131.308 74.2554 126.833 75.6517 117.885 78.4443C108.936 81.2369 104.462 82.6332 100.815 80.7209C97.167 78.8084 95.7706 74.334 92.9781 65.3856Z" fill="#F5FBFF" stroke="#3F61DB" stroke-width="3.13983"/>
<path d="M103.587 81.8097C109.066 68.6428 114.563 51.8168 131.902 56.6208" stroke="#3F61DB" stroke-width="3.13983"/>
<path d="M101.107 56.2726C102.762 55.756 103.685 53.9953 103.169 52.3399C102.652 50.6846 100.891 49.7615 99.2359 50.278C97.5806 50.7946 96.6574 52.5553 97.174 54.2107C97.6906 55.866 99.4513 56.7892 101.107 56.2726Z" stroke="#3F61DB" stroke-width="3.13983" stroke-linecap="round" stroke-linejoin="round"/>
</g>
<path d="M8.89134 135.818H10.1243V142.56C10.1243 143.256 9.96023 143.877 9.6321 144.424C9.30729 144.968 8.84825 145.397 8.25497 145.712C7.6617 146.023 6.96567 146.179 6.1669 146.179C5.36813 146.179 4.67211 146.023 4.07884 145.712C3.48556 145.397 3.02486 144.968 2.69673 144.424C2.37192 143.877 2.20952 143.256 2.20952 142.56V135.818H3.44247V142.46C3.44247 142.957 3.55185 143.4 3.7706 143.788C3.98935 144.172 4.3009 144.475 4.70526 144.697C5.11293 144.916 5.60014 145.026 6.1669 145.026C6.73367 145.026 7.22088 144.916 7.62855 144.697C8.03622 144.475 8.34778 144.172 8.56321 143.788C8.78196 143.4 8.89134 142.957 8.89134 142.46V135.818ZM12.4274 148.864V138.364H13.5609V139.577H13.7001C13.7863 139.444 13.9056 139.275 14.0581 139.07C14.2138 138.861 14.4359 138.675 14.7243 138.513C15.0159 138.347 15.4103 138.264 15.9075 138.264C16.5505 138.264 17.1172 138.425 17.6078 138.746C18.0983 139.068 18.4811 139.524 18.7562 140.114C19.0313 140.704 19.1689 141.4 19.1689 142.202C19.1689 143.01 19.0313 143.711 18.7562 144.305C18.4811 144.895 18.1 145.352 17.6127 145.677C17.1255 145.998 16.5637 146.159 15.9274 146.159C15.4368 146.159 15.0441 146.078 14.7491 145.915C14.4541 145.75 14.2271 145.562 14.068 145.354C13.9089 145.142 13.7863 144.966 13.7001 144.827H13.6007V148.864H12.4274ZM13.5808 142.182C13.5808 142.759 13.6653 143.267 13.8343 143.708C14.0034 144.146 14.2503 144.489 14.5751 144.737C14.8999 144.982 15.2976 145.105 15.7683 145.105C16.2588 145.105 16.6681 144.976 16.9963 144.717C17.3277 144.455 17.5763 144.104 17.742 143.663C17.911 143.219 17.9956 142.725 17.9956 142.182C17.9956 141.645 17.9127 141.161 17.747 140.73C17.5846 140.296 17.3377 139.953 17.0062 139.701C16.6781 139.446 16.2654 139.318 15.7683 139.318C15.291 139.318 14.89 139.439 14.5652 139.681C14.2404 139.92 13.9951 140.254 13.8294 140.685C13.6636 141.113 13.5808 141.612 13.5808 142.182ZM22.1319 135.818V146H20.9586V135.818H22.1319ZM27.3832 146.159C26.6938 146.159 26.0889 145.995 25.5685 145.667C25.0515 145.339 24.6471 144.88 24.3555 144.29C24.0671 143.7 23.9229 143.01 23.9229 142.222C23.9229 141.426 24.0671 140.732 24.3555 140.138C24.6471 139.545 25.0515 139.085 25.5685 138.756C26.0889 138.428 26.6938 138.264 27.3832 138.264C28.0726 138.264 28.6758 138.428 29.1928 138.756C29.7132 139.085 30.1175 139.545 30.4059 140.138C30.6976 140.732 30.8434 141.426 30.8434 142.222C30.8434 143.01 30.6976 143.7 30.4059 144.29C30.1175 144.88 29.7132 145.339 29.1928 145.667C28.6758 145.995 28.0726 146.159 27.3832 146.159ZM27.3832 145.105C27.9068 145.105 28.3377 144.971 28.6758 144.702C29.0138 144.434 29.2641 144.081 29.4265 143.643C29.5889 143.206 29.6701 142.732 29.6701 142.222C29.6701 141.711 29.5889 141.236 29.4265 140.795C29.2641 140.354 29.0138 139.998 28.6758 139.726C28.3377 139.454 27.9068 139.318 27.3832 139.318C26.8595 139.318 26.4286 139.454 26.0906 139.726C25.7525 139.998 25.5022 140.354 25.3398 140.795C25.1774 141.236 25.0962 141.711 25.0962 142.222C25.0962 142.732 25.1774 143.206 25.3398 143.643C25.5022 144.081 25.7525 144.434 26.0906 144.702C26.4286 144.971 26.8595 145.105 27.3832 145.105ZM34.8816 146.179C34.3977 146.179 33.9585 146.088 33.5641 145.906C33.1697 145.72 32.8565 145.453 32.6245 145.105C32.3925 144.754 32.2765 144.33 32.2765 143.832C32.2765 143.395 32.3626 143.04 32.535 142.768C32.7073 142.493 32.9377 142.278 33.226 142.122C33.5144 141.966 33.8326 141.85 34.1806 141.774C34.5319 141.695 34.8849 141.632 35.2395 141.585C35.7035 141.526 36.0797 141.481 36.3681 141.451C36.6597 141.418 36.8719 141.363 37.0044 141.287C37.1403 141.211 37.2083 141.078 37.2083 140.889V140.849C37.2083 140.359 37.074 139.978 36.8056 139.706C36.5404 139.434 36.1377 139.298 35.5975 139.298C35.0373 139.298 34.5982 139.421 34.28 139.666C33.9618 139.911 33.7381 140.173 33.6088 140.452L32.4952 140.054C32.6941 139.59 32.9592 139.229 33.2907 138.97C33.6254 138.708 33.99 138.526 34.3844 138.423C34.7821 138.317 35.1732 138.264 35.5577 138.264C35.803 138.264 36.0847 138.294 36.4029 138.354C36.7244 138.41 37.0343 138.528 37.3326 138.707C37.6342 138.886 37.8844 139.156 38.0833 139.517C38.2821 139.878 38.3816 140.362 38.3816 140.969V146H37.2083V144.966H37.1486C37.0691 145.132 36.9365 145.309 36.7509 145.498C36.5653 145.687 36.3184 145.848 36.0101 145.98C35.7019 146.113 35.3257 146.179 34.8816 146.179ZM35.0605 145.125C35.5246 145.125 35.9157 145.034 36.2338 144.852C36.5553 144.669 36.7973 144.434 36.9597 144.146C37.1254 143.857 37.2083 143.554 37.2083 143.236V142.162C37.1586 142.222 37.0492 142.276 36.8801 142.326C36.7144 142.372 36.5222 142.414 36.3034 142.45C36.088 142.483 35.8775 142.513 35.6721 142.54C35.4699 142.563 35.3058 142.583 35.1799 142.599C34.8749 142.639 34.5899 142.704 34.3248 142.793C34.0629 142.879 33.8508 143.01 33.6884 143.186C33.5293 143.358 33.4498 143.594 33.4498 143.892C33.4498 144.3 33.6006 144.608 33.9022 144.817C34.2071 145.022 34.5932 145.125 35.0605 145.125ZM43.4066 146.159C42.7702 146.159 42.2085 145.998 41.7212 145.677C41.234 145.352 40.8529 144.895 40.5778 144.305C40.3027 143.711 40.1651 143.01 40.1651 142.202C40.1651 141.4 40.3027 140.704 40.5778 140.114C40.8529 139.524 41.2357 139.068 41.7262 138.746C42.2167 138.425 42.7835 138.264 43.4265 138.264C43.9237 138.264 44.3164 138.347 44.6048 138.513C44.8964 138.675 45.1185 138.861 45.271 139.07C45.4267 139.275 45.5477 139.444 45.6339 139.577H45.7333V135.818H46.9066V146H45.7731V144.827H45.6339C45.5477 144.966 45.4251 145.142 45.266 145.354C45.1069 145.562 44.8799 145.75 44.5849 145.915C44.2899 146.078 43.8971 146.159 43.4066 146.159ZM43.5657 145.105C44.0363 145.105 44.4341 144.982 44.7589 144.737C45.0837 144.489 45.3306 144.146 45.4996 143.708C45.6687 143.267 45.7532 142.759 45.7532 142.182C45.7532 141.612 45.6703 141.113 45.5046 140.685C45.3389 140.254 45.0936 139.92 44.7688 139.681C44.444 139.439 44.043 139.318 43.5657 139.318C43.0685 139.318 42.6542 139.446 42.3228 139.701C41.9947 139.953 41.7478 140.296 41.582 140.73C41.4196 141.161 41.3384 141.645 41.3384 142.182C41.3384 142.725 41.4213 143.219 41.587 143.663C41.756 144.104 42.0046 144.455 42.3327 144.717C42.6642 144.976 43.0752 145.105 43.5657 145.105ZM56.2582 146.159C55.5688 146.159 54.9639 145.995 54.4435 145.667C53.9265 145.339 53.5221 144.88 53.2305 144.29C52.9421 143.7 52.7979 143.01 52.7979 142.222C52.7979 141.426 52.9421 140.732 53.2305 140.138C53.5221 139.545 53.9265 139.085 54.4435 138.756C54.9639 138.428 55.5688 138.264 56.2582 138.264C56.9476 138.264 57.5508 138.428 58.0678 138.756C58.5882 139.085 58.9925 139.545 59.2809 140.138C59.5726 140.732 59.7184 141.426 59.7184 142.222C59.7184 143.01 59.5726 143.7 59.2809 144.29C58.9925 144.88 58.5882 145.339 58.0678 145.667C57.5508 145.995 56.9476 146.159 56.2582 146.159ZM56.2582 145.105C56.7818 145.105 57.2127 144.971 57.5508 144.702C57.8888 144.434 58.1391 144.081 58.3015 143.643C58.4639 143.206 58.5451 142.732 58.5451 142.222C58.5451 141.711 58.4639 141.236 58.3015 140.795C58.1391 140.354 57.8888 139.998 57.5508 139.726C57.2127 139.454 56.7818 139.318 56.2582 139.318C55.7345 139.318 55.3036 139.454 54.9656 139.726C54.6275 139.998 54.3772 140.354 54.2148 140.795C54.0524 141.236 53.9712 141.711 53.9712 142.222C53.9712 142.732 54.0524 143.206 54.2148 143.643C54.3772 144.081 54.6275 144.434 54.9656 144.702C55.3036 144.971 55.7345 145.105 56.2582 145.105ZM61.5094 146V138.364H62.6429V139.517H62.7225C62.8617 139.139 63.1136 138.833 63.4782 138.597C63.8427 138.362 64.2537 138.244 64.7111 138.244C64.7973 138.244 64.905 138.246 65.0343 138.249C65.1635 138.253 65.2613 138.258 65.3276 138.264V139.457C65.2878 139.447 65.1967 139.433 65.0542 139.413C64.915 139.389 64.7675 139.378 64.6117 139.378C64.2405 139.378 63.909 139.456 63.6174 139.612C63.329 139.764 63.1003 139.976 62.9313 140.248C62.7656 140.516 62.6827 140.823 62.6827 141.168V146H61.5094ZM73.9769 138.364V139.358H70.0195V138.364H73.9769ZM71.1729 136.534H72.3462V143.812C72.3462 144.144 72.3943 144.393 72.4904 144.558C72.5898 144.721 72.7158 144.83 72.8683 144.886C73.024 144.939 73.1881 144.966 73.3604 144.966C73.4897 144.966 73.5958 144.959 73.6786 144.946C73.7615 144.929 73.8278 144.916 73.8775 144.906L74.1161 145.96C74.0366 145.99 73.9255 146.02 73.783 146.05C73.6405 146.083 73.4599 146.099 73.2411 146.099C72.9097 146.099 72.5849 146.028 72.2667 145.886C71.9518 145.743 71.69 145.526 71.4812 145.234C71.2757 144.943 71.1729 144.575 71.1729 144.131V136.534ZM77.989 146.179C77.5051 146.179 77.0659 146.088 76.6715 145.906C76.2771 145.72 75.9639 145.453 75.7319 145.105C75.4999 144.754 75.3839 144.33 75.3839 143.832C75.3839 143.395 75.4701 143.04 75.6424 142.768C75.8147 142.493 76.0451 142.278 76.3335 142.122C76.6218 141.966 76.94 141.85 77.288 141.774C77.6393 141.695 77.9923 141.632 78.3469 141.585C78.811 141.526 79.1871 141.481 79.4755 141.451C79.7672 141.418 79.9793 141.363 80.1119 141.287C80.2478 141.211 80.3157 141.078 80.3157 140.889V140.849C80.3157 140.359 80.1815 139.978 79.913 139.706C79.6478 139.434 79.2451 139.298 78.7049 139.298C78.1448 139.298 77.7056 139.421 77.3874 139.666C77.0692 139.911 76.8455 140.173 76.7163 140.452L75.6026 140.054C75.8015 139.59 76.0666 139.229 76.3981 138.97C76.7328 138.708 77.0974 138.526 77.4918 138.423C77.8896 138.317 78.2807 138.264 78.6651 138.264C78.9104 138.264 79.1921 138.294 79.5103 138.354C79.8318 138.41 80.1417 138.528 80.44 138.707C80.7416 138.886 80.9918 139.156 81.1907 139.517C81.3896 139.878 81.489 140.362 81.489 140.969V146H80.3157V144.966H80.256C80.1765 145.132 80.0439 145.309 79.8583 145.498C79.6727 145.687 79.4258 145.848 79.1175 145.98C78.8093 146.113 78.4331 146.179 77.989 146.179ZM78.168 145.125C78.632 145.125 79.0231 145.034 79.3413 144.852C79.6628 144.669 79.9047 144.434 80.0671 144.146C80.2328 143.857 80.3157 143.554 80.3157 143.236V142.162C80.266 142.222 80.1566 142.276 79.9876 142.326C79.8219 142.372 79.6296 142.414 79.4109 142.45C79.1954 142.483 78.985 142.513 78.7795 142.54C78.5773 142.563 78.4132 142.583 78.2873 142.599C77.9824 142.639 77.6973 142.704 77.4322 142.793C77.1703 142.879 76.9582 143.01 76.7958 143.186C76.6367 143.358 76.5572 143.594 76.5572 143.892C76.5572 144.3 76.708 144.608 77.0096 144.817C77.3145 145.022 77.7006 145.125 78.168 145.125ZM84.7243 143.216L84.7044 141.764H84.943L88.2839 138.364H89.7356L86.176 141.963H86.0765L84.7243 143.216ZM83.6305 146V135.818H84.8038V146H83.6305ZM88.4828 146L85.4998 142.222L86.335 141.406L89.9743 146H88.4828ZM94.133 146.159C93.3972 146.159 92.7625 145.997 92.2289 145.672C91.6986 145.344 91.2892 144.886 91.0009 144.3C90.7158 143.71 90.5733 143.024 90.5733 142.241C90.5733 141.459 90.7158 140.77 91.0009 140.173C91.2892 139.573 91.6903 139.106 92.204 138.771C92.7211 138.433 93.3243 138.264 94.0137 138.264C94.4114 138.264 94.8042 138.33 95.1919 138.463C95.5797 138.596 95.9327 138.811 96.2509 139.109C96.5691 139.404 96.8226 139.795 97.0115 140.283C97.2005 140.77 97.2949 141.37 97.2949 142.082V142.58H91.4086V141.565H96.1017C96.1017 141.134 96.0156 140.75 95.8432 140.412C95.6742 140.074 95.4322 139.807 95.1174 139.612C94.8058 139.416 94.4379 139.318 94.0137 139.318C93.5463 139.318 93.142 139.434 92.8006 139.666C92.4625 139.895 92.2024 140.193 92.0201 140.561C91.8378 140.929 91.7466 141.323 91.7466 141.744V142.42C91.7466 142.997 91.8461 143.486 92.0449 143.887C92.2471 144.285 92.5272 144.588 92.8851 144.797C93.2431 145.002 93.659 145.105 94.133 145.105C94.4412 145.105 94.7196 145.062 94.9682 144.976C95.2201 144.886 95.4372 144.754 95.6195 144.578C95.8018 144.399 95.9426 144.177 96.0421 143.912L97.1756 144.23C97.0563 144.615 96.8558 144.953 96.574 145.244C96.2923 145.533 95.9443 145.758 95.53 145.92C95.1157 146.08 94.65 146.159 94.133 146.159ZM103.017 148.864V138.364H104.151V139.577H104.29C104.376 139.444 104.495 139.275 104.648 139.07C104.804 138.861 105.026 138.675 105.314 138.513C105.606 138.347 106 138.264 106.497 138.264C107.14 138.264 107.707 138.425 108.198 138.746C108.688 139.068 109.071 139.524 109.346 140.114C109.621 140.704 109.759 141.4 109.759 142.202C109.759 143.01 109.621 143.711 109.346 144.305C109.071 144.895 108.69 145.352 108.203 145.677C107.715 145.998 107.154 146.159 106.517 146.159C106.027 146.159 105.634 146.078 105.339 145.915C105.044 145.75 104.817 145.562 104.658 145.354C104.499 145.142 104.376 144.966 104.29 144.827H104.191V148.864H103.017ZM104.171 142.182C104.171 142.759 104.255 143.267 104.424 143.708C104.593 144.146 104.84 144.489 105.165 144.737C105.49 144.982 105.887 145.105 106.358 145.105C106.849 145.105 107.258 144.976 107.586 144.717C107.918 144.455 108.166 144.104 108.332 143.663C108.501 143.219 108.585 142.725 108.585 142.182C108.585 141.645 108.503 141.161 108.337 140.73C108.174 140.296 107.927 139.953 107.596 139.701C107.268 139.446 106.855 139.318 106.358 139.318C105.881 139.318 105.48 139.439 105.155 139.681C104.83 139.92 104.585 140.254 104.419 140.685C104.253 141.113 104.171 141.612 104.171 142.182ZM112.722 141.406V146H111.548V135.818H112.722V139.557H112.821C113 139.162 113.269 138.849 113.627 138.617C113.988 138.382 114.468 138.264 115.068 138.264C115.589 138.264 116.044 138.369 116.436 138.577C116.827 138.783 117.13 139.099 117.345 139.527C117.564 139.951 117.673 140.491 117.673 141.148V146H116.5V141.227C116.5 140.621 116.343 140.152 116.028 139.82C115.716 139.486 115.284 139.318 114.73 139.318C114.346 139.318 114.001 139.399 113.696 139.562C113.395 139.724 113.156 139.961 112.98 140.273C112.808 140.584 112.722 140.962 112.722 141.406ZM122.922 146.159C122.233 146.159 121.628 145.995 121.108 145.667C120.591 145.339 120.186 144.88 119.895 144.29C119.606 143.7 119.462 143.01 119.462 142.222C119.462 141.426 119.606 140.732 119.895 140.138C120.186 139.545 120.591 139.085 121.108 138.756C121.628 138.428 122.233 138.264 122.922 138.264C123.612 138.264 124.215 138.428 124.732 138.756C125.252 139.085 125.657 139.545 125.945 140.138C126.237 140.732 126.382 141.426 126.382 142.222C126.382 143.01 126.237 143.7 125.945 144.29C125.657 144.88 125.252 145.339 124.732 145.667C124.215 145.995 123.612 146.159 122.922 146.159ZM122.922 145.105C123.446 145.105 123.877 144.971 124.215 144.702C124.553 144.434 124.803 144.081 124.966 143.643C125.128 143.206 125.209 142.732 125.209 142.222C125.209 141.711 125.128 141.236 124.966 140.795C124.803 140.354 124.553 139.998 124.215 139.726C123.877 139.454 123.446 139.318 122.922 139.318C122.399 139.318 121.968 139.454 121.63 139.726C121.292 139.998 121.041 140.354 120.879 140.795C120.717 141.236 120.635 141.711 120.635 142.222C120.635 142.732 120.717 143.206 120.879 143.643C121.041 144.081 121.292 144.434 121.63 144.702C121.968 144.971 122.399 145.105 122.922 145.105ZM131.494 138.364V139.358H127.537V138.364H131.494ZM128.691 136.534H129.864V143.812C129.864 144.144 129.912 144.393 130.008 144.558C130.107 144.721 130.233 144.83 130.386 144.886C130.542 144.939 130.706 144.966 130.878 144.966C131.007 144.966 131.113 144.959 131.196 144.946C131.279 144.929 131.345 144.916 131.395 144.906L131.634 145.96C131.554 145.99 131.443 146.02 131.301 146.05C131.158 146.083 130.977 146.099 130.759 146.099C130.427 146.099 130.102 146.028 129.784 145.886C129.469 145.743 129.208 145.526 128.999 145.234C128.793 144.943 128.691 144.575 128.691 144.131V136.534ZM136.28 146.159C135.59 146.159 134.985 145.995 134.465 145.667C133.948 145.339 133.544 144.88 133.252 144.29C132.964 143.7 132.819 143.01 132.819 142.222C132.819 141.426 132.964 140.732 133.252 140.138C133.544 139.545 133.948 139.085 134.465 138.756C134.985 138.428 135.59 138.264 136.28 138.264C136.969 138.264 137.572 138.428 138.089 138.756C138.61 139.085 139.014 139.545 139.302 140.138C139.594 140.732 139.74 141.426 139.74 142.222C139.74 143.01 139.594 143.7 139.302 144.29C139.014 144.88 138.61 145.339 138.089 145.667C137.572 145.995 136.969 146.159 136.28 146.159ZM136.28 145.105C136.803 145.105 137.234 144.971 137.572 144.702C137.91 144.434 138.161 144.081 138.323 143.643C138.485 143.206 138.567 142.732 138.567 142.222C138.567 141.711 138.485 141.236 138.323 140.795C138.161 140.354 137.91 139.998 137.572 139.726C137.234 139.454 136.803 139.318 136.28 139.318C135.756 139.318 135.325 139.454 134.987 139.726C134.649 139.998 134.399 140.354 134.236 140.795C134.074 141.236 133.993 141.711 133.993 142.222C133.993 142.732 134.074 143.206 134.236 143.643C134.399 144.081 134.649 144.434 134.987 144.702C135.325 144.971 135.756 145.105 136.28 145.105ZM148.571 146.159C147.881 146.159 147.276 145.995 146.756 145.667C146.239 145.339 145.835 144.88 145.543 144.29C145.255 143.7 145.11 143.01 145.11 142.222C145.11 141.426 145.255 140.732 145.543 140.138C145.835 139.545 146.239 139.085 146.756 138.756C147.276 138.428 147.881 138.264 148.571 138.264C149.26 138.264 149.863 138.428 150.38 138.756C150.901 139.085 151.305 139.545 151.593 140.138C151.885 140.732 152.031 141.426 152.031 142.222C152.031 143.01 151.885 143.7 151.593 144.29C151.305 144.88 150.901 145.339 150.38 145.667C149.863 145.995 149.26 146.159 148.571 146.159ZM148.571 145.105C149.094 145.105 149.525 144.971 149.863 144.702C150.201 144.434 150.452 144.081 150.614 143.643C150.776 143.206 150.858 142.732 150.858 142.222C150.858 141.711 150.776 141.236 150.614 140.795C150.452 140.354 150.201 139.998 149.863 139.726C149.525 139.454 149.094 139.318 148.571 139.318C148.047 139.318 147.616 139.454 147.278 139.726C146.94 139.998 146.69 140.354 146.527 140.795C146.365 141.236 146.284 141.711 146.284 142.222C146.284 142.732 146.365 143.206 146.527 143.643C146.69 144.081 146.94 144.434 147.278 144.702C147.616 144.971 148.047 145.105 148.571 145.105ZM157.222 138.364V139.358H153.106V138.364H157.222ZM154.339 146V137.31C154.339 136.872 154.442 136.508 154.647 136.216C154.853 135.924 155.119 135.705 155.448 135.56C155.776 135.414 156.122 135.341 156.487 135.341C156.775 135.341 157.01 135.364 157.193 135.411C157.375 135.457 157.511 135.5 157.6 135.54L157.262 136.554C157.203 136.534 157.12 136.509 157.014 136.479C156.911 136.45 156.775 136.435 156.606 136.435C156.218 136.435 155.938 136.532 155.766 136.728C155.597 136.924 155.512 137.21 155.512 137.588V146H154.339ZM163.56 148.864C163.361 148.864 163.184 148.847 163.028 148.814C162.872 148.784 162.765 148.754 162.705 148.724L163.003 147.69C163.288 147.763 163.54 147.79 163.759 147.77C163.978 147.75 164.172 147.652 164.341 147.477C164.513 147.304 164.67 147.024 164.813 146.636L165.032 146.04L162.208 138.364H163.48L165.588 144.449H165.668L167.776 138.364H169.049L165.807 147.114C165.661 147.508 165.481 147.835 165.265 148.093C165.05 148.355 164.8 148.549 164.515 148.675C164.233 148.801 163.915 148.864 163.56 148.864ZM173.426 146.159C172.737 146.159 172.132 145.995 171.612 145.667C171.094 145.339 170.69 144.88 170.398 144.29C170.11 143.7 169.966 143.01 169.966 142.222C169.966 141.426 170.11 140.732 170.398 140.138C170.69 139.545 171.094 139.085 171.612 138.756C172.132 138.428 172.737 138.264 173.426 138.264C174.116 138.264 174.719 138.428 175.236 138.756C175.756 139.085 176.161 139.545 176.449 140.138C176.741 140.732 176.886 141.426 176.886 142.222C176.886 143.01 176.741 143.7 176.449 144.29C176.161 144.88 175.756 145.339 175.236 145.667C174.719 145.995 174.116 146.159 173.426 146.159ZM173.426 145.105C173.95 145.105 174.381 144.971 174.719 144.702C175.057 144.434 175.307 144.081 175.469 143.643C175.632 143.206 175.713 142.732 175.713 142.222C175.713 141.711 175.632 141.236 175.469 140.795C175.307 140.354 175.057 139.998 174.719 139.726C174.381 139.454 173.95 139.318 173.426 139.318C172.902 139.318 172.472 139.454 172.134 139.726C171.795 139.998 171.545 140.354 171.383 140.795C171.22 141.236 171.139 141.711 171.139 142.222C171.139 142.732 171.22 143.206 171.383 143.643C171.545 144.081 171.795 144.434 172.134 144.702C172.472 144.971 172.902 145.105 173.426 145.105ZM183.49 142.878V138.364H184.663V146H183.49V144.707H183.41C183.231 145.095 182.953 145.425 182.575 145.697C182.197 145.965 181.72 146.099 181.143 146.099C180.666 146.099 180.242 145.995 179.871 145.786C179.499 145.574 179.208 145.256 178.996 144.832C178.783 144.404 178.677 143.866 178.677 143.216V138.364H179.851V143.136C179.851 143.693 180.006 144.137 180.318 144.469C180.633 144.8 181.034 144.966 181.521 144.966C181.813 144.966 182.109 144.891 182.411 144.742C182.716 144.593 182.971 144.364 183.177 144.056C183.385 143.748 183.49 143.355 183.49 142.878ZM186.812 146V138.364H187.946V139.517H188.025C188.164 139.139 188.416 138.833 188.781 138.597C189.145 138.362 189.556 138.244 190.014 138.244C190.1 138.244 190.208 138.246 190.337 138.249C190.466 138.253 190.564 138.258 190.63 138.264V139.457C190.591 139.447 190.499 139.433 190.357 139.413C190.218 139.389 190.07 139.378 189.914 139.378C189.543 139.378 189.212 139.456 188.92 139.612C188.632 139.764 188.403 139.976 188.234 140.248C188.068 140.516 187.985 140.823 187.985 141.168V146H186.812ZM199.061 146.159C198.372 146.159 197.767 145.995 197.246 145.667C196.729 145.339 196.325 144.88 196.033 144.29C195.745 143.7 195.601 143.01 195.601 142.222C195.601 141.426 195.745 140.732 196.033 140.138C196.325 139.545 196.729 139.085 197.246 138.756C197.767 138.428 198.372 138.264 199.061 138.264C199.75 138.264 200.354 138.428 200.871 138.756C201.391 139.085 201.795 139.545 202.084 140.138C202.375 140.732 202.521 141.426 202.521 142.222C202.521 143.01 202.375 143.7 202.084 144.29C201.795 144.88 201.391 145.339 200.871 145.667C200.354 145.995 199.75 146.159 199.061 146.159ZM199.061 145.105C199.585 145.105 200.015 144.971 200.354 144.702C200.692 144.434 200.942 144.081 201.104 143.643C201.267 143.206 201.348 142.732 201.348 142.222C201.348 141.711 201.267 141.236 201.104 140.795C200.942 140.354 200.692 139.998 200.354 139.726C200.015 139.454 199.585 139.318 199.061 139.318C198.537 139.318 198.106 139.454 197.768 139.726C197.43 139.998 197.18 140.354 197.018 140.795C196.855 141.236 196.774 141.711 196.774 142.222C196.774 142.732 196.855 143.206 197.018 143.643C197.18 144.081 197.43 144.434 197.768 144.702C198.106 144.971 198.537 145.105 199.061 145.105ZM204.312 146V138.364H205.446V139.517H205.525C205.664 139.139 205.916 138.833 206.281 138.597C206.645 138.362 207.056 138.244 207.514 138.244C207.6 138.244 207.708 138.246 207.837 138.249C207.966 138.253 208.064 138.258 208.13 138.264V139.457C208.091 139.447 207.999 139.433 207.857 139.413C207.718 139.389 207.57 139.378 207.414 139.378C207.043 139.378 206.712 139.456 206.42 139.612C206.132 139.764 205.903 139.976 205.734 140.248C205.568 140.516 205.485 140.823 205.485 141.168V146H204.312ZM209.521 146V138.364H210.694V146H209.521ZM210.118 137.091C209.889 137.091 209.692 137.013 209.526 136.857C209.364 136.701 209.282 136.514 209.282 136.295C209.282 136.077 209.364 135.889 209.526 135.734C209.692 135.578 209.889 135.5 210.118 135.5C210.346 135.5 210.542 135.578 210.704 135.734C210.87 135.889 210.953 136.077 210.953 136.295C210.953 136.514 210.87 136.701 210.704 136.857C210.542 137.013 210.346 137.091 210.118 137.091ZM215.926 149.023C215.359 149.023 214.872 148.95 214.464 148.804C214.056 148.661 213.717 148.473 213.445 148.237C213.176 148.005 212.963 147.757 212.804 147.491L213.738 146.835C213.844 146.974 213.979 147.134 214.141 147.312C214.303 147.495 214.525 147.652 214.807 147.785C215.092 147.921 215.465 147.989 215.926 147.989C216.542 147.989 217.051 147.839 217.452 147.541C217.853 147.243 218.054 146.776 218.054 146.139V144.588H217.954C217.868 144.727 217.745 144.9 217.586 145.105C217.431 145.307 217.205 145.488 216.91 145.647C216.618 145.803 216.224 145.881 215.727 145.881C215.11 145.881 214.557 145.735 214.066 145.443C213.579 145.152 213.193 144.727 212.908 144.17C212.626 143.614 212.485 142.937 212.485 142.142C212.485 141.36 212.623 140.679 212.898 140.099C213.173 139.515 213.556 139.065 214.047 138.746C214.537 138.425 215.104 138.264 215.747 138.264C216.244 138.264 216.638 138.347 216.93 138.513C217.225 138.675 217.45 138.861 217.606 139.07C217.765 139.275 217.888 139.444 217.974 139.577H218.093V138.364H219.227V146.219C219.227 146.875 219.078 147.409 218.779 147.82C218.484 148.234 218.087 148.537 217.586 148.729C217.089 148.925 216.536 149.023 215.926 149.023ZM215.886 144.827C216.357 144.827 216.754 144.719 217.079 144.504C217.404 144.288 217.651 143.978 217.82 143.574C217.989 143.17 218.074 142.686 218.074 142.122C218.074 141.572 217.991 141.086 217.825 140.665C217.659 140.245 217.414 139.915 217.089 139.676C216.764 139.437 216.363 139.318 215.886 139.318C215.389 139.318 214.975 139.444 214.643 139.696C214.315 139.948 214.068 140.286 213.902 140.71C213.74 141.134 213.659 141.605 213.659 142.122C213.659 142.652 213.742 143.121 213.907 143.529C214.076 143.933 214.325 144.252 214.653 144.484C214.984 144.712 215.395 144.827 215.886 144.827ZM221.375 146V138.364H222.548V146H221.375ZM221.971 137.091C221.743 137.091 221.545 137.013 221.38 136.857C221.217 136.701 221.136 136.514 221.136 136.295C221.136 136.077 221.217 135.889 221.38 135.734C221.545 135.578 221.743 135.5 221.971 135.5C222.2 135.5 222.395 135.578 222.558 135.734C222.724 135.889 222.806 136.077 222.806 136.295C222.806 136.514 222.724 136.701 222.558 136.857C222.395 137.013 222.2 137.091 221.971 137.091ZM225.87 141.406V146H224.697V138.364H225.83V139.557H225.93C226.109 139.169 226.381 138.857 226.745 138.622C227.11 138.384 227.58 138.264 228.157 138.264C228.674 138.264 229.127 138.37 229.514 138.582C229.902 138.791 230.204 139.109 230.419 139.537C230.635 139.961 230.742 140.498 230.742 141.148V146H229.569V141.227C229.569 140.627 229.413 140.16 229.102 139.825C228.79 139.487 228.363 139.318 227.819 139.318C227.445 139.318 227.11 139.399 226.815 139.562C226.523 139.724 226.293 139.961 226.124 140.273C225.955 140.584 225.87 140.962 225.87 141.406ZM235.134 146.179C234.65 146.179 234.21 146.088 233.816 145.906C233.422 145.72 233.108 145.453 232.876 145.105C232.644 144.754 232.528 144.33 232.528 143.832C232.528 143.395 232.615 143.04 232.787 142.768C232.959 142.493 233.19 142.278 233.478 142.122C233.766 141.966 234.085 141.85 234.433 141.774C234.784 141.695 235.137 141.632 235.491 141.585C235.955 141.526 236.332 141.481 236.62 141.451C236.912 141.418 237.124 141.363 237.256 141.287C237.392 141.211 237.46 141.078 237.46 140.889V140.849C237.46 140.359 237.326 139.978 237.058 139.706C236.792 139.434 236.39 139.298 235.849 139.298C235.289 139.298 234.85 139.421 234.532 139.666C234.214 139.911 233.99 140.173 233.861 140.452L232.747 140.054C232.946 139.59 233.211 139.229 233.543 138.97C233.877 138.708 234.242 138.526 234.636 138.423C235.034 138.317 235.425 138.264 235.81 138.264C236.055 138.264 236.337 138.294 236.655 138.354C236.976 138.41 237.286 138.528 237.585 138.707C237.886 138.886 238.136 139.156 238.335 139.517C238.534 139.878 238.634 140.362 238.634 140.969V146H237.46V144.966H237.401C237.321 145.132 237.188 145.309 237.003 145.498C236.817 145.687 236.57 145.848 236.262 145.98C235.954 146.113 235.578 146.179 235.134 146.179ZM235.312 145.125C235.777 145.125 236.168 145.034 236.486 144.852C236.807 144.669 237.049 144.434 237.212 144.146C237.377 143.857 237.46 143.554 237.46 143.236V142.162C237.411 142.222 237.301 142.276 237.132 142.326C236.966 142.372 236.774 142.414 236.555 142.45C236.34 142.483 236.129 142.513 235.924 142.54C235.722 142.563 235.558 142.583 235.432 142.599C235.127 142.639 234.842 142.704 234.577 142.793C234.315 142.879 234.103 143.01 233.94 143.186C233.781 143.358 233.702 143.594 233.702 143.892C233.702 144.3 233.853 144.608 234.154 144.817C234.459 145.022 234.845 145.125 235.312 145.125ZM241.948 135.818V146H240.775V135.818H241.948ZM34.7703 162.364L31.9465 170H30.7533L27.9294 162.364H29.2021L31.3101 168.449H31.3896L33.4976 162.364H34.7703ZM39.2472 170.159C38.5115 170.159 37.8767 169.997 37.3431 169.672C36.8128 169.344 36.4035 168.886 36.1151 168.3C35.8301 167.71 35.6876 167.024 35.6876 166.241C35.6876 165.459 35.8301 164.77 36.1151 164.173C36.4035 163.573 36.8045 163.106 37.3183 162.771C37.8353 162.433 38.4385 162.264 39.1279 162.264C39.5257 162.264 39.9184 162.33 40.3062 162.463C40.694 162.596 41.047 162.811 41.3651 163.109C41.6833 163.404 41.9369 163.795 42.1258 164.283C42.3147 164.77 42.4092 165.37 42.4092 166.082V166.58H36.5228V165.565H41.216C41.216 165.134 41.1298 164.75 40.9575 164.412C40.7884 164.074 40.5465 163.807 40.2316 163.612C39.9201 163.416 39.5522 163.318 39.1279 163.318C38.6606 163.318 38.2562 163.434 37.9149 163.666C37.5768 163.895 37.3166 164.193 37.1343 164.561C36.952 164.929 36.8609 165.323 36.8609 165.744V166.42C36.8609 166.997 36.9603 167.486 37.1592 167.887C37.3614 168.285 37.6414 168.588 37.9994 168.797C38.3573 169.002 38.7733 169.105 39.2472 169.105C39.5555 169.105 39.8339 169.062 40.0825 168.976C40.3344 168.886 40.5515 168.754 40.7338 168.578C40.916 168.399 41.0569 168.177 41.1563 167.912L42.2899 168.23C42.1705 168.615 41.97 168.953 41.6883 169.244C41.4066 169.533 41.0586 169.758 40.6443 169.92C40.23 170.08 39.7643 170.159 39.2472 170.159ZM45.3673 165.406V170H44.194V159.818H45.3673V163.557H45.4667C45.6457 163.162 45.9142 162.849 46.2721 162.617C46.6334 162.382 47.114 162.264 47.7139 162.264C48.2342 162.264 48.69 162.369 49.0811 162.577C49.4722 162.783 49.7754 163.099 49.9909 163.527C50.2096 163.951 50.319 164.491 50.319 165.148V170H49.1457V165.227C49.1457 164.621 48.9883 164.152 48.6734 163.82C48.3618 163.486 47.9293 163.318 47.3758 163.318C46.9913 163.318 46.6466 163.399 46.3417 163.562C46.0401 163.724 45.8015 163.961 45.6258 164.273C45.4535 164.584 45.3673 164.962 45.3673 165.406ZM52.4655 170V162.364H53.6388V170H52.4655ZM53.0621 161.091C52.8334 161.091 52.6362 161.013 52.4704 160.857C52.308 160.701 52.2268 160.514 52.2268 160.295C52.2268 160.077 52.308 159.889 52.4704 159.734C52.6362 159.578 52.8334 159.5 53.0621 159.5C53.2907 159.5 53.4863 159.578 53.6487 159.734C53.8144 159.889 53.8973 160.077 53.8973 160.295C53.8973 160.514 53.8144 160.701 53.6487 160.857C53.4863 161.013 53.2907 161.091 53.0621 161.091ZM58.89 170.159C58.1741 170.159 57.5576 169.99 57.0406 169.652C56.5235 169.314 56.1258 168.848 55.8474 168.255C55.569 167.662 55.4298 166.984 55.4298 166.222C55.4298 165.446 55.5723 164.762 55.8573 164.168C56.1457 163.572 56.5467 163.106 57.0605 162.771C57.5775 162.433 58.1807 162.264 58.8701 162.264C59.407 162.264 59.891 162.364 60.3218 162.562C60.7527 162.761 61.1057 163.04 61.3808 163.398C61.6559 163.756 61.8266 164.173 61.8928 164.651H60.7195C60.6301 164.303 60.4312 163.994 60.123 163.726C59.818 163.454 59.407 163.318 58.89 163.318C58.4326 163.318 58.0316 163.437 57.6869 163.676C57.3455 163.911 57.0787 164.245 56.8865 164.675C56.6975 165.103 56.6031 165.605 56.6031 166.182C56.6031 166.772 56.6959 167.286 56.8815 167.723C57.0704 168.161 57.3356 168.5 57.6769 168.742C58.0216 168.984 58.426 169.105 58.89 169.105C59.1949 169.105 59.4717 169.052 59.7203 168.946C59.9688 168.84 60.1793 168.688 60.3517 168.489C60.524 168.29 60.6466 168.051 60.7195 167.773H61.8928C61.8266 168.223 61.6625 168.629 61.4007 168.991C61.1421 169.349 60.7991 169.634 60.3715 169.846C59.9473 170.055 59.4535 170.159 58.89 170.159ZM64.7813 159.818V170H63.608V159.818H64.7813ZM70.132 170.159C69.3962 170.159 68.7615 169.997 68.2279 169.672C67.6976 169.344 67.2883 168.886 66.9999 168.3C66.7149 167.71 66.5724 167.024 66.5724 166.241C66.5724 165.459 66.7149 164.77 66.9999 164.173C67.2883 163.573 67.6893 163.106 68.203 162.771C68.7201 162.433 69.3233 162.264 70.0127 162.264C70.4104 162.264 70.8032 162.33 71.191 162.463C71.5787 162.596 71.9317 162.811 72.2499 163.109C72.5681 163.404 72.8216 163.795 73.0106 164.283C73.1995 164.77 73.2939 165.37 73.2939 166.082V166.58H67.4076V165.565H72.1008C72.1008 165.134 72.0146 164.75 71.8422 164.412C71.6732 164.074 71.4313 163.807 71.1164 163.612C70.8048 163.416 70.4369 163.318 70.0127 163.318C69.5454 163.318 69.141 163.434 68.7996 163.666C68.4616 163.895 68.2014 164.193 68.0191 164.561C67.8368 164.929 67.7456 165.323 67.7456 165.744V166.42C67.7456 166.997 67.8451 167.486 68.0439 167.887C68.2461 168.285 68.5262 168.588 68.8841 168.797C69.2421 169.002 69.6581 169.105 70.132 169.105C70.4403 169.105 70.7187 169.062 70.9672 168.976C71.2191 168.886 71.4362 168.754 71.6185 168.578C71.8008 168.399 71.9417 168.177 72.0411 167.912L73.1746 168.23C73.0553 168.615 72.8548 168.953 72.5731 169.244C72.2913 169.533 71.9433 169.758 71.529 169.92C71.1147 170.08 70.6491 170.159 70.132 170.159ZM79.0162 170V162.364H80.1895V170H79.0162ZM79.6128 161.091C79.3841 161.091 79.1869 161.013 79.0212 160.857C78.8588 160.701 78.7776 160.514 78.7776 160.295C78.7776 160.077 78.8588 159.889 79.0212 159.734C79.1869 159.578 79.3841 159.5 79.6128 159.5C79.8415 159.5 80.0371 159.578 80.1995 159.734C80.3652 159.889 80.4481 160.077 80.4481 160.295C80.4481 160.514 80.3652 160.701 80.1995 160.857C80.0371 161.013 79.8415 161.091 79.6128 161.091ZM83.5118 165.406V170H82.3385V162.364H83.472V163.557H83.5715C83.7504 163.169 84.0222 162.857 84.3868 162.622C84.7514 162.384 85.222 162.264 85.7987 162.264C86.3158 162.264 86.7682 162.37 87.156 162.582C87.5438 162.791 87.8454 163.109 88.0608 163.537C88.2762 163.961 88.384 164.498 88.384 165.148V170H87.2107V165.227C87.2107 164.627 87.0549 164.16 86.7433 163.825C86.4318 163.487 86.0042 163.318 85.4607 163.318C85.0861 163.318 84.7514 163.399 84.4564 163.562C84.1647 163.724 83.9344 163.961 83.7654 164.273C83.5963 164.584 83.5118 164.962 83.5118 165.406ZM95.9371 164.074L94.8831 164.372C94.8168 164.196 94.719 164.026 94.5898 163.86C94.4638 163.691 94.2915 163.552 94.0727 163.442C93.854 163.333 93.5739 163.278 93.2325 163.278C92.7652 163.278 92.3757 163.386 92.0642 163.602C91.7559 163.814 91.6018 164.084 91.6018 164.412C91.6018 164.704 91.7079 164.934 91.92 165.103C92.1321 165.272 92.4636 165.413 92.9143 165.526L94.0479 165.804C94.7306 165.97 95.2394 166.223 95.5741 166.565C95.9089 166.903 96.0763 167.339 96.0763 167.872C96.0763 168.31 95.9503 168.701 95.6984 169.045C95.4498 169.39 95.1018 169.662 94.6544 169.861C94.2069 170.06 93.6866 170.159 93.0933 170.159C92.3144 170.159 91.6698 169.99 91.1594 169.652C90.6489 169.314 90.3258 168.82 90.1899 168.17L91.3035 167.892C91.4096 168.303 91.6101 168.611 91.9051 168.817C92.2034 169.022 92.5928 169.125 93.0734 169.125C93.6203 169.125 94.0545 169.009 94.376 168.777C94.7008 168.542 94.8632 168.26 94.8632 167.932C94.8632 167.667 94.7704 167.445 94.5848 167.266C94.3992 167.083 94.1141 166.947 93.7297 166.858L92.4569 166.56C91.7576 166.394 91.2439 166.137 90.9157 165.789C90.5909 165.438 90.4285 164.999 90.4285 164.472C90.4285 164.041 90.5495 163.66 90.7915 163.328C91.0367 162.997 91.3698 162.737 91.7907 162.548C92.215 162.359 92.6956 162.264 93.2325 162.264C93.9882 162.264 94.5815 162.43 95.0123 162.761C95.4465 163.093 95.7548 163.53 95.9371 164.074ZM102.655 166.878V162.364H103.828V170H102.655V168.707H102.575C102.396 169.095 102.118 169.425 101.74 169.697C101.362 169.965 100.885 170.099 100.308 170.099C99.8311 170.099 99.4068 169.995 99.0356 169.786C98.6644 169.574 98.3727 169.256 98.1606 168.832C97.9485 168.404 97.8424 167.866 97.8424 167.216V162.364H99.0157V167.136C99.0157 167.693 99.1715 168.137 99.483 168.469C99.7979 168.8 100.199 168.966 100.686 168.966C100.978 168.966 101.274 168.891 101.576 168.742C101.881 168.593 102.136 168.364 102.342 168.056C102.551 167.748 102.655 167.355 102.655 166.878ZM105.977 170V162.364H107.111V163.517H107.19C107.329 163.139 107.581 162.833 107.946 162.597C108.311 162.362 108.722 162.244 109.179 162.244C109.265 162.244 109.373 162.246 109.502 162.249C109.631 162.253 109.729 162.258 109.795 162.264V163.457C109.756 163.447 109.664 163.433 109.522 163.413C109.383 163.389 109.235 163.378 109.079 163.378C108.708 163.378 108.377 163.456 108.085 163.612C107.797 163.764 107.568 163.976 107.399 164.248C107.233 164.516 107.15 164.823 107.15 165.168V170H105.977ZM113.433 170.179C112.949 170.179 112.51 170.088 112.116 169.906C111.721 169.72 111.408 169.453 111.176 169.105C110.944 168.754 110.828 168.33 110.828 167.832C110.828 167.395 110.914 167.04 111.087 166.768C111.259 166.493 111.489 166.278 111.778 166.122C112.066 165.966 112.384 165.85 112.732 165.774C113.084 165.695 113.437 165.632 113.791 165.585C114.255 165.526 114.631 165.481 114.92 165.451C115.212 165.418 115.424 165.363 115.556 165.287C115.692 165.211 115.76 165.078 115.76 164.889V164.849C115.76 164.359 115.626 163.978 115.357 163.706C115.092 163.434 114.689 163.298 114.149 163.298C113.589 163.298 113.15 163.421 112.832 163.666C112.514 163.911 112.29 164.173 112.161 164.452L111.047 164.054C111.246 163.59 111.511 163.229 111.842 162.97C112.177 162.708 112.542 162.526 112.936 162.423C113.334 162.317 113.725 162.264 114.109 162.264C114.355 162.264 114.636 162.294 114.955 162.354C115.276 162.41 115.586 162.528 115.884 162.707C116.186 162.886 116.436 163.156 116.635 163.517C116.834 163.878 116.933 164.362 116.933 164.969V170H115.76V168.966H115.7C115.621 169.132 115.488 169.309 115.303 169.498C115.117 169.687 114.87 169.848 114.562 169.98C114.254 170.113 113.877 170.179 113.433 170.179ZM113.612 169.125C114.076 169.125 114.467 169.034 114.786 168.852C115.107 168.669 115.349 168.434 115.511 168.146C115.677 167.857 115.76 167.554 115.76 167.236V166.162C115.71 166.222 115.601 166.276 115.432 166.326C115.266 166.372 115.074 166.414 114.855 166.45C114.64 166.483 114.429 166.513 114.224 166.54C114.022 166.563 113.858 166.583 113.732 166.599C113.427 166.639 113.142 166.704 112.877 166.793C112.615 166.879 112.403 167.01 112.24 167.186C112.081 167.358 112.002 167.594 112.002 167.892C112.002 168.3 112.152 168.608 112.454 168.817C112.759 169.022 113.145 169.125 113.612 169.125ZM120.248 165.406V170H119.075V162.364H120.208V163.557H120.308C120.487 163.169 120.759 162.857 121.123 162.622C121.488 162.384 121.958 162.264 122.535 162.264C123.052 162.264 123.505 162.37 123.892 162.582C124.28 162.791 124.582 163.109 124.797 163.537C125.013 163.961 125.12 164.498 125.12 165.148V170H123.947V165.227C123.947 164.627 123.791 164.16 123.48 163.825C123.168 163.487 122.741 163.318 122.197 163.318C121.822 163.318 121.488 163.399 121.193 163.562C120.901 163.724 120.671 163.961 120.502 164.273C120.333 164.584 120.248 164.962 120.248 165.406ZM130.367 170.159C129.651 170.159 129.034 169.99 128.517 169.652C128 169.314 127.602 168.848 127.324 168.255C127.046 167.662 126.906 166.984 126.906 166.222C126.906 165.446 127.049 164.762 127.334 164.168C127.622 163.572 128.023 163.106 128.537 162.771C129.054 162.433 129.657 162.264 130.347 162.264C130.884 162.264 131.368 162.364 131.798 162.562C132.229 162.761 132.582 163.04 132.857 163.398C133.132 163.756 133.303 164.173 133.369 164.651H132.196C132.107 164.303 131.908 163.994 131.6 163.726C131.295 163.454 130.884 163.318 130.367 163.318C129.909 163.318 129.508 163.437 129.163 163.676C128.822 163.911 128.555 164.245 128.363 164.675C128.174 165.103 128.08 165.605 128.08 166.182C128.08 166.772 128.172 167.286 128.358 167.723C128.547 168.161 128.812 168.5 129.153 168.742C129.498 168.984 129.903 169.105 130.367 169.105C130.671 169.105 130.948 169.052 131.197 168.946C131.445 168.84 131.656 168.688 131.828 168.489C132.001 168.29 132.123 168.051 132.196 167.773H133.369C133.303 168.223 133.139 168.629 132.877 168.991C132.619 169.349 132.276 169.634 131.848 169.846C131.424 170.055 130.93 170.159 130.367 170.159ZM138.286 170.159C137.551 170.159 136.916 169.997 136.382 169.672C135.852 169.344 135.443 168.886 135.154 168.3C134.869 167.71 134.727 167.024 134.727 166.241C134.727 165.459 134.869 164.77 135.154 164.173C135.443 163.573 135.844 163.106 136.357 162.771C136.874 162.433 137.478 162.264 138.167 162.264C138.565 162.264 138.957 162.33 139.345 162.463C139.733 162.596 140.086 162.811 140.404 163.109C140.722 163.404 140.976 163.795 141.165 164.283C141.354 164.77 141.448 165.37 141.448 166.082V166.58H135.562V165.565H140.255C140.255 165.134 140.169 164.75 139.997 164.412C139.828 164.074 139.586 163.807 139.271 163.612C138.959 163.416 138.591 163.318 138.167 163.318C137.7 163.318 137.295 163.434 136.954 163.666C136.616 163.895 136.356 164.193 136.173 164.561C135.991 164.929 135.9 165.323 135.9 165.744V166.42C135.9 166.997 135.999 167.486 136.198 167.887C136.4 168.285 136.68 168.588 137.038 168.797C137.396 169.002 137.812 169.105 138.286 169.105C138.595 169.105 138.873 169.062 139.122 168.976C139.373 168.886 139.591 168.754 139.773 168.578C139.955 168.399 140.096 168.177 140.195 167.912L141.329 168.23C141.21 168.615 141.009 168.953 140.727 169.244C140.446 169.533 140.098 169.758 139.683 169.92C139.269 170.08 138.803 170.159 138.286 170.159ZM150.054 170.159C149.418 170.159 148.856 169.998 148.369 169.677C147.881 169.352 147.5 168.895 147.225 168.305C146.95 167.711 146.813 167.01 146.813 166.202C146.813 165.4 146.95 164.704 147.225 164.114C147.5 163.524 147.883 163.068 148.374 162.746C148.864 162.425 149.431 162.264 150.074 162.264C150.571 162.264 150.964 162.347 151.252 162.513C151.544 162.675 151.766 162.861 151.918 163.07C152.074 163.275 152.195 163.444 152.281 163.577H152.381V159.818H153.554V170H152.421V168.827H152.281C152.195 168.966 152.073 169.142 151.913 169.354C151.754 169.562 151.527 169.75 151.232 169.915C150.937 170.078 150.545 170.159 150.054 170.159ZM150.213 169.105C150.684 169.105 151.082 168.982 151.406 168.737C151.731 168.489 151.978 168.146 152.147 167.708C152.316 167.267 152.401 166.759 152.401 166.182C152.401 165.612 152.318 165.113 152.152 164.685C151.986 164.254 151.741 163.92 151.416 163.681C151.091 163.439 150.69 163.318 150.213 163.318C149.716 163.318 149.302 163.446 148.97 163.701C148.642 163.953 148.395 164.296 148.229 164.73C148.067 165.161 147.986 165.645 147.986 166.182C147.986 166.725 148.069 167.219 148.234 167.663C148.403 168.104 148.652 168.455 148.98 168.717C149.312 168.976 149.723 169.105 150.213 169.105ZM158.968 170.159C158.279 170.159 157.674 169.995 157.153 169.667C156.636 169.339 156.232 168.88 155.94 168.29C155.652 167.7 155.508 167.01 155.508 166.222C155.508 165.426 155.652 164.732 155.94 164.138C156.232 163.545 156.636 163.085 157.153 162.756C157.674 162.428 158.279 162.264 158.968 162.264C159.658 162.264 160.261 162.428 160.778 162.756C161.298 163.085 161.703 163.545 161.991 164.138C162.283 164.732 162.428 165.426 162.428 166.222C162.428 167.01 162.283 167.7 161.991 168.29C161.703 168.88 161.298 169.339 160.778 169.667C160.261 169.995 159.658 170.159 158.968 170.159ZM158.968 169.105C159.492 169.105 159.923 168.971 160.261 168.702C160.599 168.434 160.849 168.081 161.011 167.643C161.174 167.206 161.255 166.732 161.255 166.222C161.255 165.711 161.174 165.236 161.011 164.795C160.849 164.354 160.599 163.998 160.261 163.726C159.923 163.454 159.492 163.318 158.968 163.318C158.444 163.318 158.014 163.454 157.676 163.726C157.337 163.998 157.087 164.354 156.925 164.795C156.762 165.236 156.681 165.711 156.681 166.222C156.681 166.732 156.762 167.206 156.925 167.643C157.087 168.081 157.337 168.434 157.676 168.702C158.014 168.971 158.444 169.105 158.968 169.105ZM167.322 170.159C166.606 170.159 165.989 169.99 165.472 169.652C164.955 169.314 164.557 168.848 164.279 168.255C164.001 167.662 163.861 166.984 163.861 166.222C163.861 165.446 164.004 164.762 164.289 164.168C164.577 163.572 164.978 163.106 165.492 162.771C166.009 162.433 166.612 162.264 167.302 162.264C167.839 162.264 168.323 162.364 168.753 162.562C169.184 162.761 169.537 163.04 169.812 163.398C170.088 163.756 170.258 164.173 170.324 164.651H169.151C169.062 164.303 168.863 163.994 168.555 163.726C168.25 163.454 167.839 163.318 167.322 163.318C166.864 163.318 166.463 163.437 166.119 163.676C165.777 163.911 165.51 164.245 165.318 164.675C165.129 165.103 165.035 165.605 165.035 166.182C165.035 166.772 165.128 167.286 165.313 167.723C165.502 168.161 165.767 168.5 166.109 168.742C166.453 168.984 166.858 169.105 167.322 169.105C167.627 169.105 167.903 169.052 168.152 168.946C168.4 168.84 168.611 168.688 168.783 168.489C168.956 168.29 169.078 168.051 169.151 167.773H170.324C170.258 168.223 170.094 168.629 169.832 168.991C169.574 169.349 169.231 169.634 168.803 169.846C168.379 170.055 167.885 170.159 167.322 170.159ZM176.852 166.878V162.364H178.025V170H176.852V168.707H176.773C176.594 169.095 176.315 169.425 175.937 169.697C175.56 169.965 175.082 170.099 174.506 170.099C174.028 170.099 173.604 169.995 173.233 169.786C172.862 169.574 172.57 169.256 172.358 168.832C172.146 168.404 172.04 167.866 172.04 167.216V162.364H173.213V167.136C173.213 167.693 173.369 168.137 173.68 168.469C173.995 168.8 174.396 168.966 174.883 168.966C175.175 168.966 175.472 168.891 175.773 168.742C176.078 168.593 176.333 168.364 176.539 168.056C176.748 167.748 176.852 167.355 176.852 166.878ZM180.174 170V162.364H181.308V163.557H181.407C181.566 163.149 181.823 162.833 182.178 162.607C182.533 162.379 182.959 162.264 183.456 162.264C183.959 162.264 184.379 162.379 184.714 162.607C185.052 162.833 185.315 163.149 185.504 163.557H185.584C185.779 163.162 186.072 162.849 186.464 162.617C186.855 162.382 187.324 162.264 187.87 162.264C188.553 162.264 189.112 162.478 189.546 162.906C189.98 163.33 190.197 163.991 190.197 164.889V170H189.024V164.889C189.024 164.326 188.87 163.923 188.562 163.681C188.253 163.439 187.89 163.318 187.473 163.318C186.936 163.318 186.52 163.481 186.225 163.805C185.93 164.127 185.782 164.535 185.782 165.028V170H184.589V164.77C184.589 164.336 184.448 163.986 184.167 163.721C183.885 163.452 183.522 163.318 183.078 163.318C182.773 163.318 182.488 163.399 182.223 163.562C181.961 163.724 181.749 163.95 181.586 164.238C181.427 164.523 181.348 164.853 181.348 165.227V170H180.174ZM195.544 170.159C194.808 170.159 194.174 169.997 193.64 169.672C193.11 169.344 192.7 168.886 192.412 168.3C192.127 167.71 191.984 167.024 191.984 166.241C191.984 165.459 192.127 164.77 192.412 164.173C192.7 163.573 193.101 163.106 193.615 162.771C194.132 162.433 194.735 162.264 195.425 162.264C195.823 162.264 196.215 162.33 196.603 162.463C196.991 162.596 197.344 162.811 197.662 163.109C197.98 163.404 198.234 163.795 198.423 164.283C198.612 164.77 198.706 165.37 198.706 166.082V166.58H192.82V165.565H197.513C197.513 165.134 197.427 164.75 197.254 164.412C197.085 164.074 196.843 163.807 196.528 163.612C196.217 163.416 195.849 163.318 195.425 163.318C194.957 163.318 194.553 163.434 194.212 163.666C193.874 163.895 193.613 164.193 193.431 164.561C193.249 164.929 193.158 165.323 193.158 165.744V166.42C193.158 166.997 193.257 167.486 193.456 167.887C193.658 168.285 193.938 168.588 194.296 168.797C194.654 169.002 195.07 169.105 195.544 169.105C195.852 169.105 196.131 169.062 196.379 168.976C196.631 168.886 196.848 168.754 197.031 168.578C197.213 168.399 197.354 168.177 197.453 167.912L198.587 168.23C198.467 168.615 198.267 168.953 197.985 169.244C197.703 169.533 197.355 169.758 196.941 169.92C196.527 170.08 196.061 170.159 195.544 170.159ZM201.664 165.406V170H200.491V162.364H201.624V163.557H201.724C201.903 163.169 202.175 162.857 202.539 162.622C202.904 162.384 203.374 162.264 203.951 162.264C204.468 162.264 204.921 162.37 205.308 162.582C205.696 162.791 205.998 163.109 206.213 163.537C206.429 163.961 206.536 164.498 206.536 165.148V170H205.363V165.227C205.363 164.627 205.207 164.16 204.896 163.825C204.584 163.487 204.157 163.318 203.613 163.318C203.238 163.318 202.904 163.399 202.609 163.562C202.317 163.724 202.087 163.961 201.918 164.273C201.749 164.584 201.664 164.962 201.664 165.406ZM212.001 162.364V163.358H208.044V162.364H212.001ZM209.197 160.534H210.371V167.812C210.371 168.144 210.419 168.393 210.515 168.558C210.614 168.721 210.74 168.83 210.893 168.886C211.048 168.939 211.213 168.966 211.385 168.966C211.514 168.966 211.62 168.959 211.703 168.946C211.786 168.929 211.852 168.916 211.902 168.906L212.141 169.96C212.061 169.99 211.95 170.02 211.807 170.05C211.665 170.083 211.484 170.099 211.266 170.099C210.934 170.099 210.609 170.028 210.291 169.886C209.976 169.743 209.714 169.526 209.506 169.234C209.3 168.943 209.197 168.575 209.197 168.131V160.534ZM214.621 170.08C214.376 170.08 214.166 169.992 213.99 169.816C213.814 169.64 213.726 169.43 213.726 169.185C213.726 168.939 213.814 168.729 213.99 168.553C214.166 168.378 214.376 168.29 214.621 168.29C214.867 168.29 215.077 168.378 215.253 168.553C215.428 168.729 215.516 168.939 215.516 169.185C215.516 169.347 215.475 169.496 215.392 169.632C215.312 169.768 215.205 169.877 215.069 169.96C214.936 170.04 214.787 170.08 214.621 170.08Z" fill="black"/>
<defs>
<clipPath id="clip0_5033_3483">
<rect width="50.2374" height="50.2374" fill="white" transform="translate(114.576 32.4719) rotate(15)"/>
</clipPath>
<clipPath id="clip1_5033_3483">
<rect width="50.2374" height="50.2374" fill="white" transform="translate(80.5 42.9659) rotate(-17.3317)"/>
</clipPath>
</defs>
</svg>
