<svg width="32" height="32" viewBox="0 0 32 32" fill="none" xmlns="http://www.w3.org/2000/svg">
<g id="Group 1096">
<rect id="Rectangle 80" width="32" height="32" rx="5" fill="#E7F6EC"/>
<g id="Group 48015">
<path id="Vector" fill-rule="evenodd" clip-rule="evenodd" d="M15.6335 21.481C15.4273 21.481 15.2585 21.3459 15.2258 21.1852L16.7768 21.1873C16.7443 21.3459 16.5755 21.481 16.3693 21.481H15.6333H15.6335ZM16.6416 20.7902C16.2171 20.7891 15.7862 20.7891 15.3614 20.7902C15.1817 20.791 15.1471 20.8967 15.1215 20.3896L16.8851 20.3894C16.8765 20.4906 16.8621 20.5854 16.8512 20.685C16.8346 20.8348 16.8069 20.791 16.6416 20.7902ZM15.0333 19.7169H16.9704L16.9372 19.9888C16.8604 20.0061 15.1426 20.0061 15.0658 19.9888L15.0336 19.7169H15.0333ZM14.6668 19.98C14.6638 19.9834 14.6583 19.9831 14.6567 19.989C14.6465 20.0227 14.6102 19.999 14.5519 20.0666C14.523 20.0995 14.4988 20.1531 14.5057 20.2147C14.5201 20.3389 14.5941 20.3757 14.7204 20.3939L14.7693 20.7955C14.5585 20.8505 14.5438 21.1555 14.814 21.1849C15.0134 21.8932 15.4135 21.8771 16.0016 21.8771C16.5864 21.8771 16.9894 21.8939 17.1892 21.1849C17.4559 21.1558 17.4476 20.8516 17.2354 20.7957L17.2838 20.3941C17.4092 20.3757 17.4831 20.3389 17.4974 20.2147C17.5071 20.1325 17.468 20.0699 17.408 20.0305L17.3464 19.989C17.344 19.9871 17.3392 19.9834 17.3364 19.98C17.3679 19.6878 17.3395 19.6991 17.4929 19.5991C17.7818 19.4104 18.0698 19.0625 18.2334 18.7391C19.0938 17.0391 17.8453 15.1143 16.0498 15.0994C13.7251 15.0799 12.5683 18.0245 14.5204 19.5726C14.6633 19.6859 14.6344 19.684 14.6671 19.98H14.6668Z" fill="#0F973D"/>
<path id="Vector_2" fill-rule="evenodd" clip-rule="evenodd" d="M13.3923 20.195C13.4528 19.8729 13.0735 19.8302 13.0119 20.086C12.8448 20.7803 13.0083 21.5791 13.3231 22.1694C13.4573 22.4211 13.6846 22.7039 13.8804 22.8923C14.9853 23.9559 16.7183 24.0292 17.8665 23.1159C18.5283 22.5894 18.9742 21.8422 19.0424 20.9318C19.0628 20.6611 19.0453 20.3859 18.9972 20.127C18.937 19.8023 18.5726 19.8959 18.6018 20.1571C18.6338 20.4454 18.6736 20.6194 18.6471 20.9337C18.5568 21.9985 17.7795 22.9661 16.7526 23.2498C14.7987 23.7895 13.0247 22.1532 13.3923 20.195Z" fill="#0F973D"/>
<path id="Vector_3" fill-rule="evenodd" clip-rule="evenodd" d="M18.9089 17.3624C18.711 17.405 18.7037 17.657 18.8592 17.7307C18.9296 17.7639 19.3723 17.7637 19.4669 17.7473C19.6665 17.7127 19.6748 17.4423 19.5169 17.3759C19.4527 17.3486 18.9883 17.3455 18.9087 17.3626L18.9089 17.3624Z" fill="#0F973D"/>
<path id="Vector_4" fill-rule="evenodd" clip-rule="evenodd" d="M15.9636 13.9221C15.7801 13.9778 15.8185 14.2123 15.8183 14.4116C15.8183 14.6095 15.8204 14.8523 16.0783 14.7797C16.2575 14.7295 16.2144 14.4789 16.2146 14.2838C16.2146 14.1893 16.2258 14.0771 16.1855 14.0051C16.1523 13.9458 16.0601 13.8932 15.9634 13.9223L15.9636 13.9221Z" fill="#0F973D"/>
<path id="Vector_5" fill-rule="evenodd" clip-rule="evenodd" d="M12.5213 17.3399C12.2785 17.4229 12.3795 17.667 12.5096 17.7104C12.5682 17.7301 13.0646 17.7284 13.1231 17.7092C13.2921 17.6537 13.2902 17.3944 13.1222 17.3394C13.0586 17.3186 12.5822 17.3188 12.5213 17.3396V17.3399Z" fill="#0F973D"/>
<path id="Vector_6" fill-rule="evenodd" clip-rule="evenodd" d="M13.5277 14.9225C13.4346 14.9526 13.3668 15.0223 13.3986 15.1572C13.4154 15.2295 13.5225 15.317 13.5647 15.3596C13.7193 15.5161 13.8364 15.6894 14.0021 15.6277C14.0782 15.5993 14.1459 15.5094 14.118 15.3961C14.0976 15.3139 13.8411 15.0835 13.7698 15.0107C13.7084 14.9481 13.6572 14.8806 13.5275 14.9225H13.5277Z" fill="#0F973D"/>
<path id="Vector_7" fill-rule="evenodd" clip-rule="evenodd" d="M18.3535 14.9513C18.275 14.9868 18.0522 15.2267 17.9799 15.3016C17.7874 15.5007 17.9892 15.7352 18.1788 15.6434C18.2338 15.6167 18.4841 15.3517 18.5455 15.291C18.7446 15.0942 18.5595 14.8581 18.3537 14.9513H18.3535Z" fill="#0F973D"/>
<path id="Vector_8" fill-rule="evenodd" clip-rule="evenodd" d="M23.4696 9.18706C23.8937 8.67363 24.5882 8.6978 25.0121 9.04459C25.5274 9.46605 25.5001 10.1715 25.1683 10.5861C24.7449 11.1156 24.0362 11.0905 23.6173 10.7499C23.0897 10.3203 23.1138 9.61871 23.4696 9.18706ZM22.8645 10.7707L19.0766 14.0853C18.8642 14.2709 18.6231 14.4475 18.8291 14.6864C19.0299 14.9192 19.237 14.7222 19.4433 14.5416L23.2478 11.2145C23.6754 11.4764 23.9679 11.617 24.3512 11.5876C25.9254 11.4676 26.4535 9.78085 25.581 8.78362C24.3175 7.3398 21.8483 8.80708 22.8645 10.7705V10.7707Z" fill="#0F973D"/>
<path id="Vector_9" fill-rule="evenodd" clip-rule="evenodd" d="M8.34569 18.353C7.82396 18.4331 7.42597 18.0522 7.35794 17.6234C7.27545 17.1021 7.66396 16.6994 8.07901 16.6292C8.6088 16.5392 9.01462 16.9281 9.08289 17.3505C9.16846 17.8829 8.78374 18.2854 8.34569 18.353ZM9.53919 17.7355L11.5377 17.7549C11.7612 17.7573 11.9971 17.7803 12.0011 17.5297C12.0051 17.2861 11.7788 17.2934 11.5614 17.2915L9.54654 17.2704C9.43205 16.89 9.33297 16.6527 9.09071 16.4676C8.09632 15.7081 6.89405 16.427 6.88386 17.4778C6.86963 18.9982 9.10446 19.4329 9.53919 17.7355Z" fill="#0F973D"/>
<path id="Vector_10" fill-rule="evenodd" clip-rule="evenodd" d="M23.911 18.353C24.4327 18.4331 24.8307 18.0522 24.8987 17.6234C24.981 17.1021 24.5927 16.6994 24.1777 16.6292C23.6479 16.5392 23.2418 16.9281 23.1738 17.3505C23.0882 17.8829 23.4727 18.2854 23.911 18.353ZM22.7175 17.7355L20.719 17.7549C20.4955 17.7573 20.2596 17.7803 20.2556 17.5297C20.2513 17.2861 20.4779 17.2934 20.6953 17.2915L22.7101 17.2704C22.8246 16.89 22.9237 16.6527 23.166 16.4676C24.1604 15.7081 25.3626 16.427 25.3726 17.4778C25.387 18.9982 23.1522 19.4329 22.7175 17.7355Z" fill="#0F973D"/>
<path id="Vector_11" fill-rule="evenodd" clip-rule="evenodd" d="M16.8598 9.47036C16.9456 8.94958 16.5687 8.54757 16.1406 8.47551C15.6203 8.38756 15.2135 8.77181 15.1389 9.18615C15.0438 9.71499 15.4283 10.1248 15.85 10.1971C16.3814 10.2882 16.788 9.90771 16.8598 9.47013V9.47036ZM16.2302 10.6577L16.2293 12.6562C16.2293 12.8797 16.2496 13.1158 15.9993 13.1175C15.7554 13.1189 15.7651 12.8925 15.7654 12.6752L15.7651 10.6603C15.3859 10.5418 15.1493 10.4403 14.967 10.1962C14.2175 9.19397 14.949 7.99929 15.9993 8C17.5199 8.00095 17.9317 10.2403 16.23 10.6577H16.2302Z" fill="#0F973D"/>
<path id="Vector_12" fill-rule="evenodd" clip-rule="evenodd" d="M8.53016 9.18706C8.10633 8.67363 7.41179 8.6978 6.98772 9.04459C6.47263 9.46605 6.49989 10.1715 6.83175 10.5861C7.2551 11.1156 7.96387 11.0905 8.38248 10.7499C8.91037 10.3203 8.88619 9.61871 8.53016 9.18706ZM9.13556 10.7707L12.9235 14.0853C13.1356 14.2709 13.3769 14.4475 13.1709 14.6864C12.9699 14.9192 12.7628 14.7222 12.5568 14.5416L8.75226 11.2145C8.32463 11.4764 8.03213 11.617 7.64883 11.5876C6.07465 11.4676 5.54652 9.78085 6.41907 8.78362C7.68226 7.3398 10.1515 8.80708 9.13556 10.7705V10.7707Z" fill="#0F973D"/>
</g>
</g>
</svg>
