<svg width="32" height="32" viewBox="0 0 32 32" fill="none" xmlns="http://www.w3.org/2000/svg">
<g id="Group 1095">
<rect id="Rectangle 80" width="32" height="32" rx="5" fill="#ECEFFB"/>
<g id="_105553249533888">
<path id="Vector" d="M26.0001 25.377C24.0494 24.2853 23.6231 22.3218 23.5327 21.3857C26.2915 17.5961 25.9627 12.258 22.5436 8.83859C18.7588 5.0538 12.6232 5.0538 8.83871 8.83859C5.05393 12.6231 5.05393 18.759 8.83871 22.5435C12.0236 25.7284 16.8733 26.232 20.5859 24.0569C22.9699 25.5301 25.9998 25.3773 25.9998 25.3773L26.0001 25.377ZM20.3557 11.0265C22.9319 13.6027 22.9319 17.7791 20.3557 20.3549C17.7798 22.9314 13.6031 22.9314 11.0266 20.3549C8.45046 17.7791 8.45046 13.6024 11.0266 11.0262C13.6031 8.45003 17.7795 8.45003 20.3557 11.0265Z" fill="#3F61DB"/>
<path id="Vector_2" d="M13.7327 15.8616C13.7327 16.5358 13.1862 17.0821 12.512 17.0821C11.8381 17.0821 11.2915 16.5358 11.2915 15.8616C11.2915 15.1874 11.8381 14.6411 12.512 14.6411C13.1862 14.6411 13.7327 15.1877 13.7327 15.8616Z" fill="#3F61DB"/>
<path id="Vector_3" d="M17.0856 15.8616C17.0856 16.5358 16.5393 17.0821 15.8652 17.0821C15.1913 17.0821 14.6447 16.5358 14.6447 15.8616C14.6447 15.1874 15.1913 14.6411 15.8652 14.6411C16.5393 14.6411 17.0856 15.1874 17.0856 15.8616Z" fill="#3F61DB"/>
<path id="Vector_4" d="M20.4386 15.8617C20.4386 16.5359 19.892 17.0821 19.2178 17.0821C18.5442 17.0821 17.9976 16.5359 17.9976 15.8617C17.9976 15.1875 18.5442 14.6412 19.2178 14.6409C19.892 14.6412 20.4386 15.1875 20.4386 15.8617Z" fill="#3F61DB"/>
</g>
</g>
</svg>
