<svg width="24" height="25" viewBox="0 0 24 25" fill="none" xmlns="http://www.w3.org/2000/svg">
<path fill-rule="evenodd" clip-rule="evenodd" d="M8.78838 4.32886C9.18838 4.32886 9.51315 4.64732 9.51315 5.04049C9.51315 5.43273 9.18934 5.75119 8.78838 5.75119L7.23696 5.75213C5.94934 5.754 4.90172 6.78223 4.90172 8.0458V9.81648C4.90172 10.2087 4.576 10.5281 4.176 10.5281C3.776 10.5281 3.45124 10.2087 3.45124 9.81648V8.0458C3.45124 5.99868 5.14934 4.33166 7.236 4.32979L8.78743 4.32886H8.78838ZM15.6197 4.32886H17.1369C19.2292 4.32886 20.9302 5.99681 20.9302 8.0486V9.81648C20.9302 10.2087 20.6064 10.5281 20.2054 10.5281C19.8054 10.5281 19.4807 10.2087 19.4807 9.81648V8.0486C19.4807 6.78129 18.4292 5.75026 17.1369 5.75026H15.6197C15.2197 5.75026 14.895 5.43273 14.895 5.04049C14.895 4.64732 15.2197 4.32886 15.6197 4.32886ZM14.8215 7.89311H9.56058C8.35677 7.90525 7.38915 8.86998 7.39963 10.0514V11.2374C7.40249 11.3756 7.51582 11.4886 7.65677 11.4933H16.7234C16.8653 11.4896 16.9787 11.3766 16.9834 11.2374V10.0514C16.9844 9.48075 16.7596 8.93255 16.3539 8.52443C15.9511 8.12005 15.3977 7.89311 14.8215 7.89311ZM2.44007 12.9393H21.942C22.342 12.9393 22.6667 13.2578 22.6667 13.651C22.6667 14.0432 22.342 14.3608 21.942 14.3608H20.9305V17.7508C20.9305 19.8036 19.2286 21.4715 17.1372 21.4715H15.6201C15.2191 21.4715 14.8944 21.153 14.8944 20.7599C14.8944 20.3676 15.2191 20.0492 15.6201 20.0492H17.1372C18.4296 20.0492 19.481 19.0191 19.481 17.7508V14.3608H16.9829V15.3049C16.9925 16.4863 16.0258 17.452 14.821 17.4632H9.56007C8.35626 17.452 7.38959 16.4863 7.39912 15.3049V14.3608H4.90102V17.7546C4.90102 19.0181 5.94959 20.0464 7.23817 20.0482L8.78864 20.0492C9.18864 20.0492 9.5134 20.3676 9.5134 20.7599C9.51245 21.153 9.18864 21.4715 8.78769 21.4715L7.23626 21.4706C5.14959 21.4687 3.45055 19.8017 3.45055 17.7546V14.3608H2.44007C2.04007 14.3608 1.71436 14.0432 1.71436 13.651C1.71436 13.2578 2.04007 12.9393 2.44007 12.9393Z" fill="white"/>
</svg>
